<svg width="1280" height="1024" viewBox="0 0 1280 1024" fill="none" xmlns="http://www.w3.org/2000/svg">
<g id="Business Illustration-03 1">
<g id="Group">
<g id="Group_2">
<g id="_x33_">
<g id="Background_2_">
<path id="Vector" d="M1218.2 909H20.5C20.5 909 9.30002 784.4 178 795C178 795 182.4 610.9 329.8 644.4C329.8 644.4 355.6 568.4 421 615.5C421 615.5 570 320 769 483C789.8 500.1 840 577 806 653C806 653 912 610 938.5 723.6C979.8 900.5 1064.7 766.2 1148.3 819.4C1231.8 872.5 1218.2 909 1218.2 909Z" fill="#E4EEF7"/>
</g>
<g id="Rocket">
<path id="Vector_2" d="M544.6 368.1C544.6 368.1 589.2 375.7 594.4 428.3C595.6 440.8 596.1 456.1 594.8 478.6L548.7 428.9L544.6 368.1Z" fill="url(#paint0_linear_2_2)"/>
<path id="Vector_3" d="M552.8 406.7L513.1 417.8L438 150.7C438 150.7 507 165.4 530.9 264.9C539.2 299.8 544.4 323.8 552.8 406.7Z" fill="url(#paint1_linear_2_2)"/>
<path id="Vector_4" d="M460.9 391.6C460.9 391.6 426.8 421.4 449.7 468.9C455.2 480.2 462.7 493.5 475.6 512.1L489 445.6L460.9 391.6Z" fill="url(#paint2_linear_2_2)"/>
<path id="Vector_5" d="M553.8 438.9L552.3 406.4L512.6 417.6L522.2 451.6L553.8 438.9Z" fill="url(#paint3_linear_2_2)"/>
<path id="Vector_6" d="M474 428.8L513.7 417.7L438.6 150.6C438.6 150.6 387.3 199.1 418.8 296.5C429.9 330.5 438 353.7 474 428.8Z" fill="url(#paint4_linear_2_2)"/>
<path id="Vector_7" d="M489.9 456.8L474.3 428.3L513.9 417.2L523.5 451.2L489.9 456.8Z" fill="url(#paint5_linear_2_2)"/>
<path id="Vector_8" d="M471.7 302.1C489.815 302.1 504.5 287.415 504.5 269.3C504.5 251.185 489.815 236.5 471.7 236.5C453.585 236.5 438.9 251.185 438.9 269.3C438.9 287.415 453.585 302.1 471.7 302.1Z" fill="url(#paint6_linear_2_2)"/>
<path id="Vector_9" d="M471.7 290.6C483.464 290.6 493 281.064 493 269.3C493 257.536 483.464 248 471.7 248C459.936 248 450.4 257.536 450.4 269.3C450.4 281.064 459.936 290.6 471.7 290.6Z" fill="url(#paint7_linear_2_2)"/>
<path id="Vector_10" d="M535.5 494.9C533.5 495.4 531.5 494.3 531 492.4L499.9 381.9C499.4 379.9 500.5 377.9 502.4 377.4C504.4 376.9 506.4 378 506.9 379.9L538 490.3C538.6 492.3 537.4 494.3 535.5 494.9Z" fill="url(#paint8_linear_2_2)"/>
<g id="Group_3">
<path id="Vector_11" d="M504.957 532.711L502.052 533.461L529.002 637.833L531.907 637.083L504.957 532.711Z" fill="#515151"/>
</g>
<g id="Group_4">
<path id="Vector_12" d="M566.654 552.504L563.749 553.254L590.699 657.625L593.604 656.875L566.654 552.504Z" fill="#515151"/>
</g>
<g id="Group_5">
<path id="Vector_13" d="M567.255 477.214L564.35 477.964L591.3 582.336L594.205 581.586L567.255 477.214Z" fill="#515151"/>
</g>
<g id="Group_6">
<path id="Vector_14" d="M540.333 546.436L537.432 547.201L553.191 606.962L556.092 606.197L540.333 546.436Z" fill="#515151"/>
</g>
</g>
<g id="Plant_5_">
<path id="Vector_15" d="M1048.2 945.6C1048.2 945.6 1086.3 857.8 1132.2 846.9C1139.5 845.2 1146.5 851 1146 858.4C1145 874.4 1131.3 906.7 1061.9 960.6L1048.2 945.6Z" fill="url(#paint9_linear_2_2)"/>
<g id="Group_7">
<path id="Vector_16" d="M1053.5 951.6C1054.1 950.8 1136.8 853.8 1136.8 853.8C1119.1 878.7 1055.7 952.1 1055 952.9L1053.5 951.6Z" fill="white"/>
</g>
<path id="Vector_17" d="M1034.8 935.7C1034.8 935.7 1044.1 825.7 1090.1 796.8C1097.4 792.2 1107.2 796 1109.4 804.3C1114.2 822.2 1111.2 862.5 1055.2 947L1034.8 935.7Z" fill="url(#paint10_linear_2_2)"/>
<g id="Group_8">
<g id="Group_9">
<path id="Vector_18" d="M1042.8 940.3C1043.2 939.2 1097.7 802.7 1097.7 802.7C1087.6 836.4 1045.3 940.1 1044.9 941.1L1042.8 940.3Z" fill="white"/>
</g>
</g>
<path id="Vector_19" d="M1210.1 971.1C1210.1 971.1 1183.1 896 1116.7 925.5C1116.7 925.5 1088.6 938.3 1057.9 906.4C1057.9 906.4 1000.9 833 946 857.4C946 857.4 919.2 867.7 905.2 917.5C905.2 917.5 834.9 915.1 826.1 971.3L1210.1 971.1Z" fill="url(#paint11_linear_2_2)"/>
</g>
<g id="Plant_4_">
<path id="Vector_20" d="M220.9 921C220.9 921 181.9 833.6 204.7 792.4C208.3 785.8 217.3 784.6 222.5 790C233.6 801.6 248.2 833.4 241.1 921H220.9Z" fill="url(#paint12_linear_2_2)"/>
<g id="Group_10">
<path id="Vector_21" d="M229 921.1C228.9 920.1 213 793.6 213 793.6C219.4 823.4 230.8 919.8 230.9 920.8L229 921.1Z" fill="white"/>
</g>
<path id="Vector_22" d="M197.4 937.6C197.4 937.6 101 848.9 107.5 784.6C108.5 774.4 119.1 768 128.6 772C148.8 780.5 184.4 812.7 222.9 926.6L197.4 937.6Z" fill="url(#paint13_linear_2_2)"/>
<g id="Group_11">
<g id="Group_12">
<path id="Vector_23" d="M207.6 933.4C206.9 932.2 118.6 781.8 118.6 781.8C142.8 815.8 209.2 930.9 210 932L207.6 933.4Z" fill="white"/>
</g>
</g>
<path id="Vector_24" d="M71 971.7C71 971.7 104 879.7 185.6 915.8C185.6 915.8 220.1 931.5 257.8 892.3C257.8 892.3 327.6 802.1 395.1 831.9C395.1 831.9 428.1 844.5 445.3 905.7C445.3 905.7 531.6 902.6 542.6 971.6L71 971.7Z" fill="url(#paint14_linear_2_2)"/>
<path id="Vector_25" d="M261.7 971.5C261.7 971.5 294.7 891.5 348 924.4C348 924.4 370 949.5 395.1 927.5C395.1 927.5 440.6 866.3 492.4 888.3C544.2 910.3 563 971.5 563 971.5H261.7Z" fill="url(#paint15_linear_2_2)"/>
</g>
<g id="Element_7_">
<path id="Vector_26" d="M316 677.5C308.6 677.5 302.5 683.6 302.5 691H299.5C299.5 681.9 306.9 674.5 316 674.5C325.1 674.5 332.5 681.9 332.5 691H329.5C329.5 683.6 323.4 677.5 316 677.5Z" fill="url(#paint16_linear_2_2)"/>
<path id="Vector_27" d="M151.5 473.2L154.7 474.1C158.4 469.9 164.2 467.9 170 469.5C178 471.7 182.7 480 180.5 487.9C178.3 495.9 170 500.6 162.1 498.4C156.8 496.9 152.9 492.7 151.6 487.7L148.3 486.8C149.4 493.5 154.3 499.3 161.3 501.3C170.9 503.9 180.8 498.3 183.4 488.7C186 479.1 180.4 469.2 170.8 466.6C163.3 464.6 155.8 467.5 151.5 473.2Z" fill="url(#paint17_linear_2_2)"/>
<g id="Group_13">
<path id="Vector_28" d="M277.2 230.8C275 229 273.8 226.4 273.9 223.6V221.7C273.9 219.7 273 217.9 271.5 216.7C269.9 215.5 267.9 215.2 266 215.8C263.2 216.7 260.1 216.2 257.7 214.4C255.3 212.6 254 209.8 254.1 206.8L254.2 204.9C254.3 203 253.5 201.3 252.1 200.1C250.7 198.9 248.8 198.4 247 198.8L246.4 195.9C249.1 195.3 251.9 196.1 254.1 197.9C256.2 199.7 257.4 202.4 257.3 205.1L257.2 207C257.1 209 258 210.9 259.6 212.1C261.2 213.3 263.2 213.7 265.1 213C267.9 212.1 270.9 212.6 273.3 214.3C275.7 216.1 277 218.8 277 221.7V223.6C277 225.5 277.8 227.3 279.4 228.5C280.9 229.7 282.9 230 284.8 229.5L285.5 229.3C288.3 228.5 291.2 229 293.5 230.7C295.8 232.4 297.1 235.1 297.1 238H294.1C294.1 236.1 293.2 234.3 291.7 233.1C290.2 231.9 288.2 231.6 286.4 232.1L285.7 232.3C282.9 233.1 280 232.6 277.7 230.8C277.4 230.9 277.3 230.8 277.2 230.8Z" fill="url(#paint18_linear_2_2)"/>
</g>
<path id="Vector_29" d="M1008 210.5C1000.6 210.5 994.5 204.4 994.5 197H991.5C991.5 206.1 998.9 213.5 1008 213.5C1017.1 213.5 1024.5 206.1 1024.5 197H1021.5C1021.5 204.4 1015.4 210.5 1008 210.5Z" fill="url(#paint19_linear_2_2)"/>
<g id="Group_14">
<path id="Vector_30" d="M1023.8 727H979.3L1002.3 691.7L1023.8 727ZM986.4 723.1H1016.9L1002.2 698.9L986.4 723.1Z" fill="url(#paint20_linear_2_2)"/>
</g>
<g id="Group_15">
<path id="Vector_31" d="M1122.7 458.3C1120.1 459.4 1117.2 459.2 1114.8 457.9L1113.1 457C1111.4 456 1109.3 456 1107.6 456.8C1105.8 457.7 1104.6 459.3 1104.3 461.2C1103.8 464.1 1101.9 466.6 1099.2 467.8C1096.5 469 1093.4 468.9 1090.8 467.4L1089.1 466.4C1087.5 465.5 1085.6 465.3 1083.8 466C1082 466.7 1080.8 468.1 1080.2 469.9L1077.3 469C1078.1 466.3 1080 464.2 1082.7 463.2C1085.3 462.2 1088.2 462.4 1090.6 463.8L1092.3 464.8C1094 465.8 1096.1 465.9 1097.9 465.1C1099.7 464.3 1101 462.6 1101.3 460.7C1101.8 457.8 1103.6 455.4 1106.3 454.1C1109 452.8 1112 452.9 1114.6 454.4L1116.3 455.3C1118 456.2 1120 456.3 1121.8 455.5C1123.6 454.7 1124.8 453.1 1125.2 451.2L1125.3 450.5C1125.9 447.7 1127.7 445.3 1130.3 444.1C1132.9 442.9 1135.9 443 1138.4 444.3L1137 446.9C1135.3 446 1133.3 445.9 1131.6 446.7C1129.9 447.5 1128.6 449.1 1128.2 451L1128.1 451.7C1127.5 454.6 1125.7 456.9 1123 458.1C1122.9 458.2 1122.8 458.3 1122.7 458.3Z" fill="url(#paint21_linear_2_2)"/>
</g>
</g>
<g id="Element_6_">
<path id="Vector_32" d="M351 487C351 487 372 483 377 457C377 457 382.5 482.5 403.5 486.5C403.5 486.5 380.5 495.5 377.5 516.5C377.5 516.5 372.5 491.5 351 487Z" fill="url(#paint22_linear_2_2)"/>
<path id="Vector_33" d="M313 460.7C313 460.7 329.6 457.5 333.6 437C333.6 437 337.9 457.2 354.5 460.3C354.5 460.3 336.3 467.4 333.9 484C333.9 484 330 464.2 313 460.7Z" fill="url(#paint23_linear_2_2)"/>
<path id="Vector_34" d="M316.2 514.2C316.2 514.2 330.3 511.5 333.7 494C333.7 494 337.4 511.2 351.5 513.8C351.5 513.8 336 519.9 334 534C334 534 330.6 517.2 316.2 514.2Z" fill="url(#paint24_linear_2_2)"/>
</g>
<g id="Element_5_">
<path id="Vector_35" d="M603 238C603 238 624 234 629 208C629 208 634.5 233.5 655.5 237.5C655.5 237.5 632.5 246.5 629.5 267.5C629.5 267.5 624.5 242.5 603 238Z" fill="url(#paint25_linear_2_2)"/>
<path id="Vector_36" d="M565 211.7C565 211.7 581.6 208.5 585.6 188C585.6 188 589.9 208.2 606.5 211.3C606.5 211.3 588.3 218.4 585.9 235C585.9 235 582 215.2 565 211.7Z" fill="url(#paint26_linear_2_2)"/>
<path id="Vector_37" d="M568.2 265.2C568.2 265.2 582.3 262.5 585.7 245C585.7 245 589.4 262.2 603.5 264.8C603.5 264.8 588 270.9 586 285C586 285 582.6 268.2 568.2 265.2Z" fill="url(#paint27_linear_2_2)"/>
</g>
<g id="Man_1_">
<path id="Vector_38" d="M899.7 316.1C899.7 316.9 865.5 320 865.5 320L863.4 305.6L861.6 293V292.8C813.4 305.2 828.2 254.7 828.2 254.7L822 249.3C822 249.3 832.9 239.2 836.8 232.2C840.7 225.2 850 212 850 212L896.6 225.2L894.3 273.4C894.3 273.4 899.7 315.3 899.7 316.1Z" fill="#FFC0BF"/>
<path id="Vector_39" d="M704.5 853.5L695.1 874.2L689.5 886.4L663.7 876.8L670.5 858.4L676.8 841.2L704.5 853.5Z" fill="#FFC0BF"/>
<path id="Vector_40" d="M689 901.6L691.5 882.5C691.5 882.5 673 886 665.4 871.9L612.4 881.8C609.5 882.3 609.4 886.4 612.2 887.2L682.5 905.9C685.6 906.7 688.6 904.7 689 901.6Z" fill="url(#paint28_linear_2_2)"/>
<path id="Vector_41" d="M876.9 810.2L854.4 826L850.4 820.5L832.5 795L858.3 779.2L867.1 793.8L876.9 810.2Z" fill="#FFC0BF"/>
<path id="Vector_42" d="M704.5 853.5L695.1 874.2L670.5 858.4L676.8 841.2L704.5 853.5Z" fill="#EFA3B2"/>
<path id="Vector_43" d="M867.1 793.8L850.4 820.5L832.5 795L858.3 779.2L867.1 793.8Z" fill="#EFA3B2"/>
<path id="Vector_44" d="M889.1 819.2L874.8 806.3C874.8 806.3 867.2 823.5 851.3 821.8L829.4 871C828.2 873.7 831.5 876.1 833.7 874.2L889 827C891.4 825 891.5 821.3 889.1 819.2Z" fill="url(#paint29_linear_2_2)"/>
<path id="Vector_45" d="M787 633.9L795.2 649.7L822 701.3L868.9 791.6L826.8 830.1L792.4 777.3L759.2 726.4L715 659C700.5 645.5 700.6 622.5 715.2 609L847.2 493.4L947.8 516C933.2 551.7 787 633.9 787 633.9Z" fill="url(#paint30_linear_2_2)"/>
<path id="Vector_46" d="M822 701.3L792.3 777.5L759.1 726.5L795.2 649.7L822 701.3Z" fill="url(#paint31_linear_2_2)"/>
<path id="Vector_47" d="M950.8 493.4C950.8 493.4 950.8 494.7 950.5 497.2C949.4 506.4 943.9 532.1 917.9 571.4C915.3 575.3 912.5 579.3 909.5 583.5C891.2 608.8 864.9 639.1 826.8 673.5L722.5 872L670 857.4L770.4 621.6L837.8 518.8L842.3 511.9L856.9 489.6L927.3 492.4L950.8 493.4Z" fill="url(#paint32_linear_2_2)"/>
<path id="Vector_48" d="M950.8 493.4C950.8 493.4 950.8 494.7 950.5 497.2C949.4 506.4 943.9 532.1 917.9 571.4C915.3 575.3 912.5 579.3 909.5 583.5C908.1 535.7 854.4 521.9 837.8 518.8L842.3 511.9L856.9 489.6L927.3 492.4L950.8 493.4Z" fill="url(#paint33_linear_2_2)"/>
<path id="Vector_49" d="M854.5 378.3V441.4L846.6 438.9L828.6 433.3L824.7 377.6L824.6 376.6L854.5 378.3Z" fill="#FFC0BF"/>
<path id="Vector_50" d="M854.5 378.3V441.4L846.6 438.9L839 390L824.7 377.6L824.6 376.6L854.5 378.3Z" fill="#EFA3B2"/>
<path id="Vector_51" d="M964.3 384.6C964.1 389.4 963.8 394.8 963.4 400.8C961.3 434.3 956.4 486.1 945.5 538.7C944.9 541.7 941.3 543.1 938.8 541.3C929 534.2 912.6 520.3 878 518C847.2 515.9 836.6 510.2 832.9 506.6C831.5 505.2 831.3 503 832.3 501.3C834.9 497 843.7 481.7 847.3 466.6C848.5 461.7 849.1 456.7 848.9 452.2C848.9 451.9 848.9 451.7 848.9 451.4C849 450.5 848.9 447.3 848.6 442.7C847.4 425 843.9 386.8 843.1 382.9C843.1 382.9 825.1 377.9 824.7 376.9L825.4 349.1V349C825.3 346.9 827.2 317.9 863.4 307.7C864.2 307.5 866.8 316.8 876 316C887 315 897.4 301 898 301C908.2 301.1 954.3 316.4 964 363.1C964 363.2 964.9 371.1 964.3 384.6Z" fill="url(#paint34_linear_2_2)"/>
<path id="Vector_52" d="M809.9 403.5L887.7 437.5V444L824.5 437.5L809.9 403.5Z" fill="url(#paint35_linear_2_2)"/>
<path id="Vector_53" d="M964.3 384.6C964.1 389.4 963.8 394.8 963.4 400.8C950.8 432.4 925.9 490.8 912 493C902.7 494.5 863.6 474.9 847.3 466.7C848.5 461.8 849.1 456.8 848.9 452.3C848.9 452 848.9 451.8 848.9 451.5C849 450.6 848.9 447.4 848.6 442.8L903 457L939 398L964.3 384.6Z" fill="url(#paint36_linear_2_2)"/>
<path id="Vector_54" d="M887.7 444L829.4 442.4L824.5 432.7L887.7 437.5V444Z" fill="url(#paint37_linear_2_2)"/>
<path id="Vector_55" d="M700.6 313L809.6 348.3C812.8 349.4 815.2 352.1 815.8 355.5L829.5 442.3L731.7 409.7C729 408.8 726.9 406.7 726 404L696.9 316.7C696.1 314.5 698.2 312.3 700.6 313Z" fill="url(#paint38_linear_2_2)"/>
<path id="Vector_56" d="M949.7 417.1L940.4 433.5L917.4 473.8C915.7 477.5 911.4 479.3 907.6 477.9L823.7 446.5L804.3 443.6L778.4 430.6L773.5 423.8L829.4 440.4L899.8 443.2L913 402.1L914 397.7L949.7 417.1Z" fill="#FFC0BF"/>
<path id="Vector_57" d="M949.7 417.1L940.3 433.5L913 402.1L914.1 397.7L949.7 417.1Z" fill="#EFA3B2"/>
<path id="Vector_58" d="M765 367.7C767 372.7 765.6 377.9 761.9 379.4C758.2 380.9 753.5 378.1 751.5 373.1C749.5 368.1 750.9 362.9 754.6 361.4C758.3 359.9 763 362.8 765 367.7Z" fill="url(#paint39_linear_2_2)"/>
<path id="Vector_59" d="M925.9 350.3L912.4 401.1L950.3 420.6L960.4 395.3C960.4 395.3 970.7 365.4 959.1 348.6C956.3 344.5 953.9 339.5 947.1 337.7C937.9 335.1 928.4 341 925.9 350.3Z" fill="url(#paint40_linear_2_2)"/>
<path id="Vector_60" d="M914.9 235.7C914.9 235.7 915.8 225 904 210.4C895.9 200.4 860.9 174.7 843.8 205C829.1 231 866.5 241 877.4 243.3L871.8 257.1L878.8 259.4C878.8 259.4 896.1 250 893.1 266C892.3 270.1 891.1 272.2 886.4 277.6L895.1 282C895 282 932.7 266 914.9 235.7Z" fill="url(#paint41_linear_2_2)"/>
<path id="Vector_61" d="M879 287C877.7 293.9 869.5 301.1 863.5 305.6L861.7 293C869.8 290.6 879 287 879 287Z" fill="#EFA3B2"/>
</g>
</g>
</g>
</g>
</g>
<defs>
<linearGradient id="paint0_linear_2_2" x1="615.713" y1="478.707" x2="550.919" y2="391.409" gradientUnits="userSpaceOnUse">
<stop offset="0.2509" stop-color="#8990F9"/>
<stop offset="1" stop-color="#9DDEFF"/>
</linearGradient>
<linearGradient id="paint1_linear_2_2" x1="484.468" y1="205.021" x2="540.966" y2="500.167" gradientUnits="userSpaceOnUse">
<stop stop-color="#FA655C"/>
<stop offset="1" stop-color="#FFBF8A"/>
</linearGradient>
<linearGradient id="paint2_linear_2_2" x1="462.698" y1="513.711" x2="466.518" y2="411.213" gradientUnits="userSpaceOnUse">
<stop offset="0.2509" stop-color="#8990F9"/>
<stop offset="1" stop-color="#9DDEFF"/>
</linearGradient>
<linearGradient id="paint3_linear_2_2" x1="536.92" y1="527.235" x2="531.551" y2="383.37" gradientUnits="userSpaceOnUse">
<stop stop-color="#2B233C"/>
<stop offset="1" stop-color="#635C70"/>
</linearGradient>
<linearGradient id="paint4_linear_2_2" x1="399.228" y1="172.909" x2="479.949" y2="337.899" gradientUnits="userSpaceOnUse">
<stop stop-color="#DD4B47"/>
<stop offset="1" stop-color="#FFBF8A"/>
</linearGradient>
<linearGradient id="paint5_linear_2_2" x1="518.229" y1="454.217" x2="474.649" y2="408.069" gradientUnits="userSpaceOnUse">
<stop stop-color="#2B233C"/>
<stop offset="1" stop-color="#635C70"/>
</linearGradient>
<linearGradient id="paint6_linear_2_2" x1="440.206" y1="278.098" x2="503.269" y2="260.379" gradientUnits="userSpaceOnUse">
<stop stop-color="#2B233C"/>
<stop offset="1" stop-color="#635C70"/>
</linearGradient>
<linearGradient id="paint7_linear_2_2" x1="451.189" y1="275.012" x2="492.286" y2="263.465" gradientUnits="userSpaceOnUse">
<stop offset="0.2509" stop-color="#8990F9"/>
<stop offset="1" stop-color="#9DDEFF"/>
</linearGradient>
<linearGradient id="paint8_linear_2_2" x1="516.734" y1="496.405" x2="520.452" y2="396.624" gradientUnits="userSpaceOnUse">
<stop offset="0.2509" stop-color="#8990F9"/>
<stop offset="1" stop-color="#9DDEFF"/>
</linearGradient>
<linearGradient id="paint9_linear_2_2" x1="1118.23" y1="875.499" x2="1058.33" y2="952.028" gradientUnits="userSpaceOnUse">
<stop stop-color="#AB53FF"/>
<stop offset="1" stop-color="#CF87FF"/>
</linearGradient>
<linearGradient id="paint10_linear_2_2" x1="1045.76" y1="929.746" x2="1089.95" y2="826.776" gradientUnits="userSpaceOnUse">
<stop stop-color="#64D7FD"/>
<stop offset="1" stop-color="#6577FF"/>
</linearGradient>
<linearGradient id="paint11_linear_2_2" x1="1210" y1="911.548" x2="826" y2="912.162" gradientUnits="userSpaceOnUse">
<stop stop-color="#29056B"/>
<stop offset="1" stop-color="#6C93F5"/>
</linearGradient>
<linearGradient id="paint12_linear_2_2" x1="216.486" y1="822.001" x2="232.525" y2="917.856" gradientUnits="userSpaceOnUse">
<stop stop-color="#AB53FF"/>
<stop offset="1" stop-color="#CF87FF"/>
</linearGradient>
<linearGradient id="paint13_linear_2_2" x1="199.842" y1="922.951" x2="135.491" y2="806.589" gradientUnits="userSpaceOnUse">
<stop stop-color="#64D7FD"/>
<stop offset="1" stop-color="#6577FF"/>
</linearGradient>
<linearGradient id="paint14_linear_2_2" x1="451.933" y1="898.749" x2="97.8974" y2="898.749" gradientUnits="userSpaceOnUse">
<stop stop-color="#29056B"/>
<stop offset="1" stop-color="#6C93F5"/>
</linearGradient>
<linearGradient id="paint15_linear_2_2" x1="261.679" y1="927.531" x2="563" y2="927.531" gradientUnits="userSpaceOnUse">
<stop stop-color="#64D7FD"/>
<stop offset="1" stop-color="#6577FF"/>
</linearGradient>
<linearGradient id="paint16_linear_2_2" x1="299.5" y1="682.75" x2="332.5" y2="682.75" gradientUnits="userSpaceOnUse">
<stop stop-color="#FA655C"/>
<stop offset="1" stop-color="#FFBF8A"/>
</linearGradient>
<linearGradient id="paint17_linear_2_2" x1="161.789" y1="501.485" x2="171.339" y2="466.774" gradientUnits="userSpaceOnUse">
<stop stop-color="#C681E6"/>
<stop offset="1" stop-color="#7057E4"/>
</linearGradient>
<linearGradient id="paint18_linear_2_2" x1="245.014" y1="197.558" x2="296.182" y2="238.934" gradientUnits="userSpaceOnUse">
<stop offset="0.2509" stop-color="#8990F9"/>
<stop offset="1" stop-color="#9DDEFF"/>
</linearGradient>
<linearGradient id="paint19_linear_2_2" x1="991.5" y1="205.25" x2="1024.5" y2="205.25" gradientUnits="userSpaceOnUse">
<stop stop-color="#64D7FD"/>
<stop offset="1" stop-color="#6577FF"/>
</linearGradient>
<linearGradient id="paint20_linear_2_2" x1="979.231" y1="709.344" x2="1023.76" y2="709.344" gradientUnits="userSpaceOnUse">
<stop stop-color="#C681E6"/>
<stop offset="1" stop-color="#7057E4"/>
</linearGradient>
<linearGradient id="paint21_linear_2_2" x1="1078.36" y1="471.091" x2="1138.94" y2="445.375" gradientUnits="userSpaceOnUse">
<stop stop-color="#FA655C"/>
<stop offset="1" stop-color="#FFBF8A"/>
</linearGradient>
<linearGradient id="paint22_linear_2_2" x1="351" y1="486.75" x2="403.5" y2="486.75" gradientUnits="userSpaceOnUse">
<stop stop-color="#FA655C"/>
<stop offset="1" stop-color="#FFBF8A"/>
</linearGradient>
<linearGradient id="paint23_linear_2_2" x1="313" y1="460.483" x2="354.5" y2="460.483" gradientUnits="userSpaceOnUse">
<stop stop-color="#FA655C"/>
<stop offset="1" stop-color="#FFBF8A"/>
</linearGradient>
<linearGradient id="paint24_linear_2_2" x1="316.177" y1="513.983" x2="351.5" y2="513.983" gradientUnits="userSpaceOnUse">
<stop stop-color="#FA655C"/>
<stop offset="1" stop-color="#FFBF8A"/>
</linearGradient>
<linearGradient id="paint25_linear_2_2" x1="603" y1="237.75" x2="655.5" y2="237.75" gradientUnits="userSpaceOnUse">
<stop stop-color="#64D7FD"/>
<stop offset="1" stop-color="#6577FF"/>
</linearGradient>
<linearGradient id="paint26_linear_2_2" x1="565" y1="211.483" x2="606.5" y2="211.483" gradientUnits="userSpaceOnUse">
<stop stop-color="#64D7FD"/>
<stop offset="1" stop-color="#6577FF"/>
</linearGradient>
<linearGradient id="paint27_linear_2_2" x1="568.177" y1="264.983" x2="603.5" y2="264.983" gradientUnits="userSpaceOnUse">
<stop stop-color="#64D7FD"/>
<stop offset="1" stop-color="#6577FF"/>
</linearGradient>
<linearGradient id="paint28_linear_2_2" x1="659.974" y1="913.733" x2="647.079" y2="871.368" gradientUnits="userSpaceOnUse">
<stop stop-color="#2B233C"/>
<stop offset="1" stop-color="#635C70"/>
</linearGradient>
<linearGradient id="paint29_linear_2_2" x1="882.466" y1="849.994" x2="840.265" y2="836.581" gradientUnits="userSpaceOnUse">
<stop stop-color="#2B233C"/>
<stop offset="1" stop-color="#635C70"/>
</linearGradient>
<linearGradient id="paint30_linear_2_2" x1="827.132" y1="585.132" x2="862.396" y2="866.42" gradientUnits="userSpaceOnUse">
<stop stop-color="#2B233C"/>
<stop offset="1" stop-color="#635C70"/>
</linearGradient>
<linearGradient id="paint31_linear_2_2" x1="807.916" y1="730.385" x2="764.916" y2="679.385" gradientUnits="userSpaceOnUse">
<stop stop-color="#2B233C"/>
<stop offset="1" stop-color="#635C70"/>
</linearGradient>
<linearGradient id="paint32_linear_2_2" x1="688.251" y1="852.02" x2="887.528" y2="525.632" gradientUnits="userSpaceOnUse">
<stop stop-color="#2B233C"/>
<stop offset="1" stop-color="#635C70"/>
</linearGradient>
<linearGradient id="paint33_linear_2_2" x1="929.109" y1="479.063" x2="865.028" y2="559.357" gradientUnits="userSpaceOnUse">
<stop stop-color="#2B233C"/>
<stop offset="1" stop-color="#635C70"/>
</linearGradient>
<linearGradient id="paint34_linear_2_2" x1="871.646" y1="314.154" x2="918" y2="525.643" gradientUnits="userSpaceOnUse">
<stop stop-color="#64D7FD"/>
<stop offset="1" stop-color="#6577FF"/>
</linearGradient>
<linearGradient id="paint35_linear_2_2" x1="809.948" y1="423.782" x2="887.678" y2="423.782" gradientUnits="userSpaceOnUse">
<stop stop-color="#2B233C"/>
<stop offset="1" stop-color="#635C70"/>
</linearGradient>
<linearGradient id="paint36_linear_2_2" x1="938.939" y1="318.878" x2="903.908" y2="428.199" gradientUnits="userSpaceOnUse">
<stop stop-color="#64D7FD"/>
<stop offset="1" stop-color="#6577FF"/>
</linearGradient>
<linearGradient id="paint37_linear_2_2" x1="846.415" y1="438.357" x2="909.571" y2="438.357" gradientUnits="userSpaceOnUse">
<stop stop-color="#2B233C"/>
<stop offset="1" stop-color="#635C70"/>
</linearGradient>
<linearGradient id="paint38_linear_2_2" x1="696.673" y1="377.652" x2="829.38" y2="377.652" gradientUnits="userSpaceOnUse">
<stop stop-color="#2B233C"/>
<stop offset="1" stop-color="#635C70"/>
</linearGradient>
<linearGradient id="paint39_linear_2_2" x1="751.434" y1="373.197" x2="764.978" y2="367.76" gradientUnits="userSpaceOnUse">
<stop stop-color="#D7C4EC"/>
<stop offset="1" stop-color="#F0F0F2"/>
</linearGradient>
<linearGradient id="paint40_linear_2_2" x1="948.367" y1="332.017" x2="933.606" y2="417.305" gradientUnits="userSpaceOnUse">
<stop stop-color="#64D7FD"/>
<stop offset="1" stop-color="#6577FF"/>
</linearGradient>
<linearGradient id="paint41_linear_2_2" x1="840.395" y1="236.327" x2="919.674" y2="236.327" gradientUnits="userSpaceOnUse">
<stop stop-color="#2B233C"/>
<stop offset="1" stop-color="#635C70"/>
</linearGradient>
</defs>
</svg>
