<svg width="2000" height="2000" viewBox="0 0 2000 2000" fill="none" xmlns="http://www.w3.org/2000/svg">
<g id="Frequently Asked Questions 4 1">
<g id="Group">
<path id="faq_bg" d="M1408.38 1223.32L592.42 1324.05C511.55 1334.03 437.22 1276.03 427.231 1195.16L358.717 640.171C348.734 559.3 406.732 484.965 487.6 474.982L1303.56 374.251C1384.43 364.268 1458.76 422.266 1468.75 503.136L1537.27 1058.13C1547.25 1139 1489.25 1213.34 1408.38 1223.32Z" fill="#EBEDFC"/>
<path id="faq_ground" d="M1800.39 1625.22L1464.71 1625.5C1455.98 1625.5 1447.26 1625.51 1438.53 1625.53H1435.33C1431.44 1625.53 1427.56 1625.53 1423.67 1625.55H1415.17C1408.11 1625.55 1401.04 1625.55 1393.96 1625.56C1393.02 1625.56 1392.07 1625.56 1391.13 1625.57H1379.36C1374.25 1625.58 1369.16 1625.58 1364.06 1625.58C1362.45 1625.58 1360.84 1625.58 1359.23 1625.6H1356.03C1347.33 1625.6 1338.63 1625.6 1329.92 1625.61C953.151 1625.94 576.382 1626.26 199.613 1626.57C256.313 1588.31 341.143 1544.7 445.47 1544.17C519.17 1543.81 532.411 1565.3 599.47 1561.73C732.706 1554.66 761.033 1465.51 879.099 1438.81C1015.67 1407.91 1043.15 1512.39 1197.9 1507.7C1262.59 1505.74 1314.33 1485.77 1358.84 1460.09C1372.77 1452.07 1386.01 1443.46 1398.69 1434.68C1475.27 1381.69 1532.4 1322.09 1608.56 1338.84C1668.31 1351.98 1742.16 1412.63 1800.39 1625.22Z" fill="#DADEF2"/>
<g id="faq_leaf">
<g id="faq_leaf3">
<path id="Vector" d="M1379.36 1625.57C1374.26 1625.59 1369.16 1625.58 1364.06 1625.58C1362.45 1625.58 1360.84 1625.58 1359.24 1625.6H1356.04C1347.34 1625.6 1338.63 1625.6 1329.92 1625.61C1309.65 1602.49 1280.1 1558.74 1297.88 1513.72C1297.88 1513.72 1323.56 1522.65 1346.09 1545.87C1363.18 1563.47 1378.46 1589.26 1379.36 1625.57Z" fill="#9FA3BF"/>
<path id="Vector_2" d="M1359.24 1625.6H1356.04L1311.89 1540.58C1311.8 1540.41 1311.75 1540.23 1311.73 1540.05C1311.72 1539.86 1311.74 1539.68 1311.79 1539.5C1311.85 1539.32 1311.94 1539.16 1312.06 1539.02C1312.18 1538.88 1312.33 1538.76 1312.5 1538.68C1312.83 1538.5 1313.22 1538.47 1313.58 1538.58C1313.94 1538.69 1314.24 1538.94 1314.41 1539.27L1359.24 1625.6Z" fill="#30354F"/>
</g>
<g id="faq_leaf2">
<path id="Vector_3" d="M1464.71 1625.5C1455.98 1625.5 1447.26 1625.51 1438.53 1625.53H1435.33C1431.44 1625.53 1427.56 1625.53 1423.67 1625.54H1415.17C1415.93 1595.59 1426.47 1572.8 1439.72 1555.86C1463.72 1525.19 1496.66 1513.72 1496.66 1513.72C1514.41 1558.68 1484.99 1602.35 1464.71 1625.5Z" fill="#9FA3BF"/>
<path id="Vector_4" d="M1482.65 1540.58L1438.53 1625.53H1435.33L1480.14 1539.27C1480.31 1538.93 1480.62 1538.68 1480.97 1538.57C1481.33 1538.46 1481.72 1538.5 1482.06 1538.67C1482.22 1538.76 1482.37 1538.87 1482.49 1539.02C1482.6 1539.16 1482.69 1539.32 1482.75 1539.5C1482.8 1539.68 1482.82 1539.86 1482.81 1540.05C1482.79 1540.23 1482.74 1540.41 1482.65 1540.58V1540.58Z" fill="#30354F"/>
</g>
<g id="faq_leaf1">
<path id="Vector_5" d="M1439.72 1555.87C1439.27 1577.53 1434.65 1600.99 1423.67 1625.55H1415.17C1408.1 1625.55 1401.04 1625.55 1393.96 1625.56C1393.02 1625.56 1392.07 1625.56 1391.13 1625.57H1379.36C1374.25 1625.59 1369.16 1625.58 1364.06 1625.58C1359.95 1614.44 1349.06 1582.87 1346.09 1545.87C1343.86 1518.23 1346.06 1487.54 1358.84 1460.09C1365.66 1445.3 1375.46 1432.07 1387.63 1421.24C1391.57 1425.5 1395.27 1429.99 1398.69 1434.68C1414.34 1455.71 1440.89 1499.86 1439.72 1555.87Z" fill="#5F6386"/>
<path id="Vector_6" d="M1393.97 1625.56C1393.02 1625.56 1392.07 1625.56 1391.13 1625.57L1389.05 1467.39C1389.04 1467.01 1389.19 1466.65 1389.45 1466.38C1389.71 1466.1 1390.07 1465.95 1390.45 1465.94H1390.46C1390.84 1465.94 1391.19 1466.09 1391.46 1466.35C1391.72 1466.61 1391.87 1466.97 1391.88 1467.34L1393.97 1625.56Z" fill="#30354F"/>
</g>
</g>
<g id="Group_2">
<g id="Group_3">
<g id="Group_4">
<g id="Group_5">
<g id="Group_6">
<path id="faq_girl_hair" d="M1019.7 600.406C1017.88 596.766 1012.42 558.548 1039.11 518.511C1065.8 478.474 1043.96 453.602 1060.95 437.223C1077.93 420.844 1090.07 428.73 1090.07 428.73C1091.69 423.893 1094.32 419.451 1097.76 415.69C1101.21 411.928 1105.41 408.931 1110.09 406.892C1125.86 400.219 1150.73 404.465 1165.29 428.124C1179.84 451.783 1178.03 460.275 1170.14 506.985C1162.25 553.695 1193.8 560.368 1193.19 590.093C1192.59 619.818 1230.8 654.393 1244.15 731.437C1257.5 808.481 1238.69 846.089 1179.85 838.203C1121.01 830.317 1019.7 600.406 1019.7 600.406Z" fill="#251138"/>
<path id="Vector_7" d="M751.122 468.847C751.122 468.847 812.255 521.157 853.898 573.112C866.312 588.581 876.998 604.031 883.831 618.049C894.402 639.832 895.667 658.142 879.608 667.805C877.168 669.282 874.494 670.33 871.7 670.905C871.682 670.898 871.664 670.891 871.657 670.905C869.248 671.396 866.785 671.572 864.33 671.43C864.269 671.433 864.208 671.43 864.148 671.421C858.999 671 853.96 669.697 849.253 667.568C837.462 662.54 824.684 652.935 811.826 640.801C760.846 592.758 708.285 505.2 708.285 505.2C716.331 474.284 751.122 468.847 751.122 468.847Z" fill="#FFAA40"/>
<path id="faq_girl_right_hand" d="M1057.71 669.293C1057.71 669.293 955.11 689.273 885.631 678.42C862.419 674.805 842.918 667.754 832.141 655.38C832.141 655.361 832.134 655.342 832.116 655.345C830.506 653.493 829.079 651.489 827.855 649.361C827.82 649.311 827.791 649.257 827.768 649.2C825.229 644.674 823.707 639.65 823.308 634.476C823.156 632.871 823.103 631.259 823.149 629.648C823.487 615.491 835.334 605.82 853.492 599.357C867.978 594.198 886.483 591.068 906.392 589.292C972.667 583.446 1054.4 592.767 1054.4 592.767C1086.35 602.872 1093.66 657.64 1057.71 669.293Z" fill="#FFAA40"/>
<path id="Vector_8" d="M867.211 592.393L853.549 624.843L857.679 626.583L871.342 594.133L867.211 592.393Z" fill="#251138"/>
<path id="faq_girl_body" d="M950.568 879.033C950.568 879.033 953.73 628.182 1022.9 592.474C1062.56 572.003 1144.63 577.561 1186.48 605.845C1228.72 634.389 1198.89 879.033 1198.89 879.033H950.568Z" fill="#FFAA40"/>
<g id="Group_7">
<path id="Vector_9" d="M751.676 474.623C751.676 474.623 748.803 461.367 740.851 453.072C732.899 444.777 726.591 440.072 722.998 427.515C719.405 414.958 706.372 419.723 709.977 430.522C713.582 441.321 721.739 457.848 707.439 456.599C693.139 455.35 669.69 425.512 661.816 445.766C661.816 445.766 648.231 434.729 644.522 440.733C640.813 446.737 653.068 456.813 653.068 456.813C653.068 456.813 634.228 462.024 669.501 482.508C669.501 482.508 663.401 489.146 669.785 493.952C679.995 501.638 707.103 508.845 728.855 508.407C764.206 507.7 751.676 474.623 751.676 474.623Z" fill="#FD8B66"/>
<path id="Vector_10" d="M673.994 456.017C682.896 461.105 692.103 465.641 701.563 469.597L702.448 467.538C669.457 453.349 662.767 445.159 662.701 445.08L660.926 446.447C661.091 446.663 663.737 449.991 673.994 456.017Z" fill="#E56542"/>
<path id="Vector_11" d="M666.681 466.666C675.099 471.612 685.897 477.379 695.206 480.52L695.921 478.397C677.847 472.297 653.938 456.051 653.701 455.888L652.436 457.739C652.555 457.82 658.492 461.854 666.681 466.666Z" fill="#E56542"/>
<path id="Vector_12" d="M669.109 483.557C669.248 483.61 683.138 488.765 694.163 492.377L694.863 490.247C683.88 486.647 670.029 481.509 669.892 481.458L669.109 483.557Z" fill="#E56542"/>
</g>
<path id="faq_circle1" d="M625.136 1080.82C814.635 1080.82 968.255 927.203 968.255 737.704C968.255 548.205 814.635 394.585 625.136 394.585C435.637 394.585 282.017 548.205 282.017 737.704C282.017 927.203 435.637 1080.82 625.136 1080.82Z" fill="#5F6386"/>
<path id="Vector_13" d="M1096.56 623.985C1070.4 623.985 1058.47 593.422 1065.5 586.391C1067.6 584.169 1069.27 581.577 1070.44 578.746H1070.45C1072.23 574.5 1073.42 570.035 1074.01 565.472L1074.03 565.452L1122.4 522.307C1119.79 549.777 1131.54 569.064 1135.81 582.799C1140.05 596.534 1126.32 623.985 1096.56 623.985Z" fill="#FB855F"/>
<path id="Vector_14" d="M977.045 661.885L967.902 699.122L972.255 700.19L981.398 662.953L977.045 661.885Z" fill="#251138"/>
<path id="Vector_15" d="M1013.03 1005.03L1119.8 1000.17L1085.83 893.406L1034.87 886.127L1013.03 1005.03Z" fill="#494E6D"/>
<g id="faq_girl_right_leg">
<path id="faq_girl_right_upper_leg" d="M1014.07 1283.83C999.643 1283.84 985.759 1278.32 975.272 1268.41C964.784 1258.5 958.489 1244.95 957.679 1230.55C950.679 1103.91 947.601 974.183 950.568 879.033H1074.17C1070.27 987.417 1069.3 1113.53 1070.55 1226.72C1070.64 1234.19 1069.24 1241.6 1066.44 1248.53C1063.64 1255.45 1059.49 1261.75 1054.24 1267.07C1048.98 1272.38 1042.73 1276.59 1035.83 1279.47C1028.94 1282.35 1021.54 1283.83 1014.07 1283.83V1283.83Z" fill="#494E6D"/>
<g id="faq_girl_right_lower_leg">
<path id="Vector_16" d="M1066.75 1564.44L974.536 1600.87C971.639 1602.02 969.227 1604.13 967.712 1606.85C966.198 1609.57 965.673 1612.74 966.228 1615.8V1615.8C966.543 1617.54 967.199 1619.21 968.156 1620.69C969.114 1622.18 970.355 1623.47 971.809 1624.47C973.264 1625.48 974.902 1626.19 976.631 1626.57C978.361 1626.94 980.147 1626.98 981.888 1626.66L1117.92 1602.02L1107.06 1557.64L1066.75 1564.44Z" fill="#1C5276"/>
<path id="Vector_17" d="M1059.52 1532.86L1099.74 1525.57L1107.07 1566.06C1107.65 1569.27 1106.94 1572.59 1105.07 1575.27C1103.21 1577.96 1100.36 1579.79 1097.14 1580.37L1081.17 1583.27C1077.96 1583.85 1074.64 1583.13 1071.96 1581.27C1069.27 1579.41 1067.44 1576.55 1066.85 1573.34L1059.52 1532.86L1059.52 1532.86Z" fill="#FB855F"/>
<path id="Vector_18" d="M999.7 1150.36C992.151 1151.72 984.961 1154.62 978.572 1158.86C972.183 1163.11 966.73 1168.62 962.548 1175.05C958.366 1181.48 955.544 1188.7 954.254 1196.26C952.965 1203.82 953.236 1211.57 955.05 1219.02C980.921 1325.26 1018.5 1480.57 1035.74 1548.56L1129.85 1531.52C1111.91 1453.74 1083.91 1292.69 1064.97 1195C1062.15 1180.47 1053.72 1167.63 1041.5 1159.28C1029.28 1150.92 1014.26 1147.71 999.7 1150.36Z" fill="#494E6D"/>
<path id="Vector_19" d="M1035.74 1548.56L1027.21 1518.9L1119.68 1498.45L1129.85 1531.52L1035.74 1548.56Z" fill="#251138"/>
</g>
<path id="Vector_20" d="M1078.36 953.875L1078.73 949.409L1051.94 947.177L1060.15 880.334L1055.7 879.787L1046.92 951.256L1078.36 953.875Z" fill="#251138"/>
<path id="Vector_21" d="M951.425 988.911L965.883 976.155L970.783 878.15L966.307 877.927L961.502 974.043L948.459 985.55L951.425 988.911Z" fill="#251138"/>
</g>
<g id="faq_girl_left_leg">
<g id="faq_girl_left_upper_leg">
<path id="Vector_22" d="M1141.52 1251.08C1127.09 1251.21 1113.16 1245.81 1102.59 1235.99C1092.01 1226.18 1085.6 1212.68 1084.67 1198.28C1076.57 1071.71 1072.37 942.017 1074.51 846.846L1198.1 845.773C1195.13 954.187 1195.27 1080.31 1197.5 1193.47C1197.65 1200.94 1196.31 1208.37 1193.57 1215.32C1190.83 1222.27 1186.74 1228.6 1181.53 1233.96C1176.33 1239.32 1170.11 1243.59 1163.24 1246.53C1156.37 1249.47 1148.99 1251.01 1141.52 1251.08Z" fill="#494E6D"/>
<path id="Vector_23" d="M1194.59 999.791L1196.81 995.9L1179.47 985.99L1176.45 884.888L1171.97 885.022L1175.06 988.636L1194.59 999.791Z" fill="#251138"/>
</g>
<g id="faq_girl_left_lower_leg">
<path id="Vector_24" d="M1502.58 1268.26L1498.79 1367.34C1498.67 1370.45 1499.63 1373.51 1501.51 1376C1503.39 1378.48 1506.08 1380.23 1509.11 1380.96V1380.96C1510.83 1381.37 1512.61 1381.44 1514.36 1381.16C1516.11 1380.89 1517.78 1380.27 1519.29 1379.34C1520.8 1378.42 1522.11 1377.21 1523.15 1375.77C1524.19 1374.34 1524.94 1372.72 1525.35 1371L1557.59 1236.57L1512.59 1228.63L1502.58 1268.26Z" fill="#1C5276"/>
<path id="Vector_25" d="M1470.76 1262.14L1480.29 1222.4L1520.29 1231.99C1523.47 1232.75 1526.22 1234.75 1527.92 1237.53C1529.63 1240.32 1530.16 1243.67 1529.4 1246.85L1525.62 1262.63C1524.85 1265.81 1522.86 1268.55 1520.08 1270.26C1517.29 1271.97 1513.94 1272.5 1510.76 1271.74L1470.76 1262.14L1470.76 1262.14Z" fill="#FB855F"/>
<path id="Vector_26" d="M1087.04 1182.48C1085.46 1189.99 1085.43 1197.74 1086.96 1205.26C1088.49 1212.78 1091.53 1219.9 1095.92 1226.2C1100.3 1232.5 1105.92 1237.83 1112.44 1241.87C1118.96 1245.92 1126.24 1248.59 1133.83 1249.71C1241.98 1265.78 1400 1289.48 1469.48 1299.13L1489.15 1205.53C1410.34 1192.85 1250.61 1158.1 1152.98 1138.84C1138.46 1135.98 1123.39 1138.95 1111.05 1147.12C1098.71 1155.29 1090.08 1167.99 1087.04 1182.48Z" fill="#494E6D"/>
<path id="Vector_27" d="M1432.79 1293.73L1469.48 1299.13L1489.15 1205.53L1452.25 1200.42L1432.79 1293.73Z" fill="#251138"/>
</g>
</g>
<path id="Vector_28" d="M1098.15 641.377C1133.15 641.377 1142.84 620.269 1153.01 589.018L1148.75 587.63C1137.03 623.644 1127.27 640.19 1088.47 636.393C1049.86 632.607 1052.16 583.804 1052.28 581.729L1047.81 581.474C1047.77 582.024 1045.14 636.648 1088.03 640.853C1091.62 641.205 1095 641.38 1098.15 641.377Z" fill="#251138"/>
<g id="faq_girl_left_hand">
<path id="faq_girl_left_upper_hand" d="M1113.57 875.213C1113.61 875.199 1113.65 875.194 1113.69 875.199C1115.51 874.95 1117.31 874.563 1119.08 874.042C1125.06 872.155 1130.57 869.019 1135.25 864.842C1144.91 856.559 1153.36 843.996 1160.74 829.099C1191.81 766.328 1203.63 662.099 1203.63 662.099C1204.13 624.299 1151.1 613.999 1131.27 641.026C1131.27 641.026 1091.59 729.14 1079.68 797.162C1075.65 820.162 1074.8 840.87 1079.74 855.095C1082.75 863.817 1087.93 870.095 1095.86 872.984C1101.5 875.151 1107.57 875.915 1113.57 875.213V875.213Z" fill="#FFAA40"/>
<g id="faq_girl_left_hand_with_wrist">
<path id="faq_girl_left_lower_hand" d="M1144.18 849.657C1144.2 849.62 1144.22 849.588 1144.25 849.564C1145.35 848.003 1146.36 846.464 1147.24 844.924C1150.69 838.93 1152.46 832.909 1152.12 826.969C1151.99 824.813 1151.58 822.682 1150.92 820.627C1146.37 806.596 1134.17 801.791 1117.65 803.027C1102.75 804.111 1084.37 810.114 1064.95 818.646C1001.89 846.337 928.025 900.679 928.025 900.679C928.025 900.679 925.43 935.772 953.731 950.632C953.731 950.632 1056.63 917.459 1114.21 877.141C1126.96 868.24 1137.47 858.975 1144.18 849.657Z" fill="#FFAA40"/>
<g id="faq_girl_left_wrist">
<path id="Vector_29" d="M940.552 899.553C940.552 899.553 927.131 895.292 916.084 898.49C905.037 901.688 897.996 905.217 884.908 902.012C871.82 898.807 870.591 913.745 882.069 916.012C893.547 918.279 912.249 919.23 904.945 932.201C897.641 945.172 860.124 951.766 875.352 969.966C875.352 969.966 859.36 977.086 863.283 983.792C867.206 990.498 881.741 984.138 881.741 984.138C881.741 984.138 878.422 1004.85 912.432 982.043C912.432 982.043 915.908 991.362 923.073 987.815C934.533 982.141 952.824 960.115 961.784 939.146C976.346 905.074 940.552 899.553 940.552 899.553Z" fill="#FD8B66"/>
<path id="Vector_30" d="M875.529 971.071C875.961 971.002 886.429 969.088 914.348 944.539L912.869 942.856C885.66 966.781 875.269 968.842 875.169 968.856L875.529 971.071Z" fill="#E56542"/>
<path id="Vector_31" d="M882.29 985.114C882.546 984.97 908.05 970.604 921.656 956.364L920.036 954.817C906.664 968.817 881.447 983.017 881.194 983.159L882.29 985.114Z" fill="#E56542"/>
<path id="Vector_32" d="M913.217 982.842C913.324 982.737 924.041 972.219 932.106 963.618L930.471 962.086C922.438 970.652 911.755 981.137 911.647 981.242L913.217 982.842Z" fill="#E56542"/>
</g>
</g>
</g>
<path id="Vector_33" d="M1078.16 810.524L1075.71 814.28L1092.25 825.069L1094.7 821.313L1078.16 810.524Z" fill="#251138"/>
</g>
<g id="faq_girl_head">
<path id="Vector_34" d="M1113.91 554.791C1100.04 581.321 1071.26 578.691 1070.45 578.746C1072.23 574.5 1073.42 570.035 1074.01 565.472L1074.03 565.452C1075.33 564.7 1126.91 529.924 1113.91 554.791Z" fill="#E56542"/>
<path id="Vector_35" d="M1170.24 472.948C1170.24 472.948 1168.16 498.022 1131.7 523.848C1093.48 550.93 1136.99 467.695 1136.99 467.695L1170.24 472.948Z" fill="#251138"/>
<path id="Vector_36" d="M1070.72 457.886C1070.72 457.886 1065.56 479.493 1058.87 503.744C1049.3 538.41 1048.49 566.444 1083.8 566.444C1143.11 566.444 1139.16 468.024 1139.16 468.024L1070.72 457.886Z" fill="#FB855F"/>
<path id="Vector_37" d="M1131.17 546.719C1142.14 546.719 1151.04 537.824 1151.04 526.852C1151.04 515.88 1142.14 506.985 1131.17 506.985C1120.2 506.985 1111.3 515.88 1111.3 526.852C1111.3 537.824 1120.2 546.719 1131.17 546.719Z" fill="#FB855F"/>
<path id="Vector_38" d="M1138.4 483.125C1138.4 483.125 1133.55 466.139 1116.56 470.183C1099.58 474.227 1091.49 482.316 1082.59 478.272C1073.69 474.228 1070.72 457.886 1070.72 457.886C1070.72 457.886 1086.64 406.286 1137.59 420.844C1188.55 435.402 1168.33 478.272 1168.33 478.272L1150.53 486.36L1138.4 483.125Z" fill="#251138"/>
<path id="Vector_39" d="M1103.12 509.209C1105.4 509.209 1107.26 507.353 1107.26 505.064C1107.26 502.775 1105.4 500.919 1103.12 500.919C1100.83 500.919 1098.97 502.775 1098.97 505.064C1098.97 507.353 1100.83 509.209 1103.12 509.209Z" fill="#8E3332"/>
<path id="Vector_40" d="M1077.27 503.503C1079.56 503.503 1081.42 501.647 1081.42 499.358C1081.42 497.069 1079.56 495.213 1077.27 495.213C1074.98 495.213 1073.13 497.069 1073.13 499.358C1073.13 501.647 1074.98 503.503 1077.27 503.503Z" fill="#8E3332"/>
<path id="Vector_41" d="M1083.36 532.468C1085.23 532.453 1087.08 532.038 1088.78 531.252L1086.94 527.166C1083 528.949 1079.63 527.479 1078.81 525.781C1077.85 523.781 1080.87 522.041 1081.82 521.554C1084.98 519.941 1087.58 517.397 1089.25 514.265C1090.93 511.132 1091.61 507.562 1091.2 504.033L1086.76 504.668C1087.04 507.274 1086.52 509.904 1085.28 512.208C1084.03 514.513 1082.11 516.382 1079.77 517.568C1073.91 520.575 1073.42 524.92 1074.77 527.727C1076.09 530.45 1079.37 532.468 1083.36 532.468Z" fill="#8E3332"/>
<path id="Vector_42" d="M1070.06 539.743L1085.8 542.129C1085.8 542.129 1083.18 552.387 1076.02 551.194C1068.86 550.001 1070.06 539.743 1070.06 539.743Z" fill="white"/>
<path id="Vector_43" d="M1115.13 498.2L1119.21 496.362C1118.05 493.675 1116.19 491.349 1113.82 489.624C1111.46 487.898 1108.67 486.837 1105.76 486.55L1105.53 491.026L1105.64 488.788L1105.51 491.026C1107.61 491.268 1109.6 492.059 1111.29 493.319C1112.97 494.578 1114.3 496.263 1115.13 498.2V498.2Z" fill="#8E3332"/>
<path id="Vector_44" d="M1086.35 486.772L1088.94 483.117C1081.93 478.138 1072.75 480.247 1072.37 480.338L1073.4 484.698C1073.47 484.684 1081.01 482.984 1086.35 486.772Z" fill="#8E3332"/>
<path id="Vector_45" d="M1140.03 532.8L1144.46 532.12C1143.28 524.492 1135.72 521.913 1131.88 521.62L1131.53 526.088L1131.7 523.854L1131.52 526.087C1131.83 526.112 1139.1 526.8 1140.03 532.8Z" fill="#8E3332"/>
</g>
</g>
</g>
<path id="Vector_46" d="M1139.19 1236.21C1159.11 1236.21 1175.25 1220.07 1175.25 1200.15C1175.25 1180.24 1159.11 1164.09 1139.19 1164.09C1119.28 1164.09 1103.13 1180.24 1103.13 1200.15C1103.13 1220.07 1119.28 1236.21 1139.19 1236.21Z" fill="#251138"/>
<path id="Vector_47" d="M1006.27 1265.76C1027.03 1265.76 1043.86 1248.93 1043.86 1228.16C1043.86 1207.4 1027.03 1190.57 1006.27 1190.57C985.504 1190.57 968.673 1207.4 968.673 1228.16C968.673 1248.93 985.504 1265.76 1006.27 1265.76Z" fill="#251138"/>
</g>
<path id="Vector_48" d="M1158.07 825C1189.35 773.612 1196.57 699.228 1196.64 698.483L1192.17 698.067C1192.11 698.802 1184.97 772.179 1154.24 822.667L1158.07 825Z" fill="#251138"/>
<path id="Vector_49" d="M1000.35 848.831L953.295 877.961L955.653 881.771L1002.71 852.641L1000.35 848.831Z" fill="#251138"/>
</g>
<path id="faq_question" d="M557.317 817.935C557.292 809.575 557.886 801.225 559.094 792.953C560.276 785.005 562.569 777.262 565.907 769.953C569.489 762.245 574.404 755.229 580.424 749.228C586.738 742.796 595.033 736.929 605.308 731.628C610.437 728.983 617.251 725.483 625.749 721.128C634.38 716.691 642.695 711.664 650.633 706.081C658.537 700.581 665.619 693.985 671.666 686.492C677.432 679.555 680.578 670.813 680.554 661.792C680.554 649.301 675.814 639.554 666.334 632.551C656.917 625.572 645.467 621.882 633.747 622.051C626.509 621.914 619.329 623.368 612.714 626.31C606.787 629.026 601.215 632.458 596.124 636.53C591.299 640.387 587.015 644.875 583.385 649.873C579.83 654.797 576.671 659.15 573.906 662.932L512.879 622.051C523.146 598.967 539.439 580.987 561.76 568.111C584.071 555.244 609.252 548.811 637.303 548.811C652.526 548.843 667.674 550.944 682.331 555.056C696.919 559.016 710.601 565.764 722.621 574.929C734.772 584.381 744.686 596.401 751.652 610.129C759.151 624.52 762.903 641.933 762.909 662.366C762.909 683.943 758.268 702.018 748.986 716.591C739.704 731.164 725.978 743.937 707.809 754.91C699.69 760.115 691.283 764.856 682.628 769.11C674.59 773.022 666.778 777.382 659.228 782.169C652.647 786.235 646.83 791.424 642.042 797.5C637.69 803.177 635.517 809.991 635.524 817.94L557.317 817.935ZM559.094 957.045V871.876H636.71V957.045H559.094Z" fill="white"/>
<g id="faq_comments">
<path id="Vector_50" d="M1323.43 558.519H1586.34C1593.31 558.519 1599.99 555.751 1604.92 550.823C1609.85 545.895 1612.62 539.212 1612.62 532.243V399.4C1612.62 395.949 1611.94 392.532 1610.62 389.344C1609.3 386.156 1607.36 383.259 1604.92 380.819C1602.48 378.379 1599.58 376.444 1596.4 375.124C1593.21 373.803 1589.79 373.124 1586.34 373.124H1323.43C1316.46 373.124 1309.78 375.892 1304.85 380.82C1299.92 385.748 1297.16 392.431 1297.16 399.4V532.243C1297.16 539.212 1299.92 545.895 1304.85 550.823C1309.78 555.751 1316.46 558.519 1323.43 558.519V558.519Z" fill="#FFAA40"/>
<path id="Vector_51" d="M1312.21 470.039L1259.11 523.145H1309.04L1312.21 470.039Z" fill="#FFAA40"/>
<g id="faq_comments_para">
<path id="faq_comments_para1" d="M1344.14 433.015H1562.46C1565.21 433.015 1567.44 430.787 1567.44 428.038V422.703C1567.44 419.954 1565.21 417.726 1562.46 417.726H1344.14C1341.39 417.726 1339.16 419.954 1339.16 422.703V428.038C1339.16 430.787 1341.39 433.015 1344.14 433.015Z" fill="white"/>
<path id="faq_comments_para2" d="M1422.61 472.329H1562.46C1565.21 472.329 1567.44 470.101 1567.44 467.352V462.017C1567.44 459.268 1565.21 457.04 1562.46 457.04H1422.61C1419.86 457.04 1417.63 459.268 1417.63 462.017V467.352C1417.63 470.101 1419.86 472.329 1422.61 472.329Z" fill="white"/>
<path id="faq_comments_para3" d="M1373.47 516.011H1562.46C1565.21 516.011 1567.44 513.783 1567.44 511.034V505.699C1567.44 502.95 1565.21 500.722 1562.46 500.722H1373.47C1370.72 500.722 1368.49 502.95 1368.49 505.699V511.034C1368.49 513.783 1370.72 516.011 1373.47 516.011Z" fill="white"/>
</g>
</g>
<path id="faq_circle5" d="M1489.69 864.685C1524.01 864.685 1551.83 836.864 1551.83 802.545C1551.83 768.226 1524.01 740.405 1489.69 740.405C1455.37 740.405 1427.55 768.226 1427.55 802.545C1427.55 836.864 1455.37 864.685 1489.69 864.685Z" fill="#494E6D"/>
<path id="faq_circle2" d="M296.876 725.546C331.195 725.546 359.016 697.725 359.016 663.406C359.016 629.087 331.195 601.266 296.876 601.266C262.557 601.266 234.736 629.087 234.736 663.406C234.736 697.725 262.557 725.546 296.876 725.546Z" fill="#FFAA40"/>
<path id="faq_circle4" d="M1516.7 1183.49C1538.34 1183.49 1555.88 1165.95 1555.88 1144.31C1555.88 1122.68 1538.34 1105.14 1516.7 1105.14C1495.07 1105.14 1477.53 1122.68 1477.53 1144.31C1477.53 1165.95 1495.07 1183.49 1516.7 1183.49Z" fill="#FFAA40"/>
<path id="faq_circle6" d="M865.589 1328.03C885.733 1328.03 902.062 1311.7 902.062 1291.56C902.062 1271.41 885.733 1255.08 865.589 1255.08C845.446 1255.08 829.116 1271.41 829.116 1291.56C829.116 1311.7 845.446 1328.03 865.589 1328.03Z" stroke="#494E6D" stroke-width="5" stroke-miterlimit="10"/>
<path id="faq_circle7" d="M1312.05 959.921C1323.99 959.921 1333.66 950.244 1333.66 938.307C1333.66 926.37 1323.99 916.693 1312.05 916.693C1300.11 916.693 1290.44 926.37 1290.44 938.307C1290.44 950.244 1300.11 959.921 1312.05 959.921Z" stroke="#494E6D" stroke-width="5" stroke-miterlimit="10"/>
<path id="faq_circle8" d="M908.141 439.838C922.316 439.838 933.807 428.347 933.807 414.172C933.807 399.997 922.316 388.506 908.141 388.506C893.966 388.506 882.475 399.997 882.475 414.172C882.475 428.347 893.966 439.838 908.141 439.838Z" stroke="#494E6D" stroke-width="5" stroke-miterlimit="10"/>
<path id="faq_circle3" d="M438.716 1282.1C464.082 1282.1 484.645 1261.54 484.645 1236.17C484.645 1210.81 464.082 1190.24 438.716 1190.24C413.35 1190.24 392.787 1210.81 392.787 1236.17C392.787 1261.54 413.35 1282.1 438.716 1282.1Z" fill="#FFAA40"/>
<g id="faq_word">
<g id="faq_words">
<g id="Group_8">
<g id="faq_f">
<path id="Vector_52" d="M323.892 1623.65V1401.19H481.477V1446.31H377.51V1494.25H463.168V1535.92H377.51V1623.65H323.892Z" fill="#C7C7E3"/>
<path id="Vector_53" d="M357.972 1623.65V1401.19H515.557V1446.31H411.59V1494.25H497.249V1535.92H411.59V1623.65H357.972Z" fill="#5F6386"/>
</g>
<g id="faq_a">
<path id="Vector_54" d="M547.518 1401.19H595.906L680.584 1623.65H625.658L607.677 1573.83H535.423L517.767 1623.65H462.841L547.518 1401.19ZM598.849 1538.43L571.713 1459.78L543.923 1538.43H598.849Z" fill="#C7C7E3"/>
<path id="Vector_55" d="M581.6 1401.19H629.987L714.665 1623.65H659.738L641.757 1573.83H569.5L551.845 1623.65H496.921L581.6 1401.19ZM632.93 1538.43L605.794 1459.78L578 1538.43H632.93Z" fill="#5F6386"/>
</g>
<g id="faq_q">
<path id="Vector_56" d="M853.211 1611.11C844.754 1615.57 835.814 1619.04 826.566 1621.45C816.799 1624 806.743 1625.26 796.651 1625.21C779.43 1625.21 763.736 1622.03 749.571 1615.66C735.928 1609.66 723.598 1601.03 713.281 1590.28C703.289 1579.79 695.359 1567.51 689.904 1554.09C684.399 1540.78 681.566 1526.51 681.568 1512.11C681.551 1497.56 684.499 1483.17 690.232 1469.81C695.919 1456.36 704.132 1444.13 714.425 1433.78C724.978 1423.2 737.464 1414.74 751.206 1408.87C765.875 1402.61 781.684 1399.46 797.633 1399.62C814.847 1399.62 830.54 1402.91 844.711 1409.49C858.355 1415.7 870.676 1424.48 881 1435.34C890.956 1445.89 898.831 1458.22 904.213 1471.69C909.573 1484.82 912.348 1498.86 912.387 1513.05C912.435 1527 909.77 1540.84 904.541 1553.78C899.359 1566.65 891.819 1578.45 882.309 1588.56L915.657 1623.65H865.307L853.211 1611.11ZM796.978 1579.47C805.693 1579.47 813.322 1578.11 819.863 1575.4L782.592 1535.92H832.941L847.327 1551.27C850.819 1545.41 853.461 1539.08 855.173 1532.47C859.061 1517.56 858.607 1501.86 853.866 1487.2C851.38 1479.39 847.38 1472.15 842.095 1465.89C836.8 1459.68 830.292 1454.62 822.97 1451.01C815.45 1447.25 806.786 1445.37 796.978 1445.37C786.731 1445.37 777.849 1447.3 770.332 1451.17C762.995 1454.89 756.532 1460.12 751.37 1466.52C746.223 1472.94 742.339 1480.28 739.926 1488.14C737.431 1496.1 736.164 1504.4 736.167 1512.74C736.15 1521.2 737.474 1529.61 740.09 1537.65C742.56 1545.43 746.5 1552.66 751.696 1558.95C756.943 1565.22 763.463 1570.29 770.822 1573.84C778.988 1577.71 787.941 1579.64 796.978 1579.47V1579.47Z" fill="#C7C7E3"/>
<path id="Vector_57" d="M887.291 1611.11C878.834 1615.57 869.894 1619.04 860.646 1621.45C850.879 1624 840.824 1625.26 830.732 1625.21C813.51 1625.21 797.817 1622.03 783.652 1615.66C770.009 1609.66 757.679 1601.04 747.362 1590.28C737.37 1579.79 729.44 1567.51 723.985 1554.09C718.479 1540.78 715.647 1526.51 715.648 1512.11C715.631 1497.56 718.579 1483.17 724.312 1469.81C729.999 1456.36 738.212 1444.13 748.505 1433.78C759.058 1423.2 771.545 1414.74 785.286 1408.87C799.955 1402.61 815.764 1399.46 831.713 1399.62C848.927 1399.62 864.62 1402.91 878.791 1409.49C892.435 1415.7 904.756 1424.48 915.081 1435.34C925.037 1445.89 932.912 1458.22 938.295 1471.69C943.654 1484.82 946.43 1498.86 946.469 1513.04C946.517 1527 943.852 1540.84 938.622 1553.78C933.44 1566.65 925.9 1578.44 916.39 1588.55L949.738 1623.64H899.389L887.291 1611.11ZM831.058 1579.47C839.773 1579.47 847.401 1578.11 853.943 1575.4L816.672 1535.92H867.022L881.407 1551.27C884.899 1545.41 887.541 1539.08 889.254 1532.47C893.142 1517.56 892.688 1501.86 887.946 1487.2C885.46 1479.39 881.46 1472.15 876.175 1465.89C870.88 1459.68 864.372 1454.62 857.051 1451.01C849.53 1447.25 840.865 1445.37 831.058 1445.37C820.811 1445.37 811.93 1447.3 804.413 1451.17C797.076 1454.89 790.612 1460.12 785.45 1466.52C780.303 1472.94 776.42 1480.28 774.007 1488.14C771.512 1496.1 770.244 1504.4 770.247 1512.74C770.23 1521.2 771.554 1529.61 774.17 1537.65C776.641 1545.43 780.581 1552.66 785.776 1558.95C791.023 1565.21 797.542 1570.29 804.9 1573.83C813.066 1577.71 822.02 1579.64 831.058 1579.47V1579.47Z" fill="#5F6386"/>
</g>
</g>
</g>
</g>
</g>
</g>
</svg>
