<svg width="1600" height="1200" viewBox="0 0 1600 1200" fill="none" xmlns="http://www.w3.org/2000/svg">
<g id="Get Solutions From Our Services 1">
<g id="Background_1_">
<path id="Shape_257_" d="M1600 0H0V1200H1600V0Z" fill="white"/>
<path id="service_bg" d="M1372.5 688.01C1352.6 739.79 1325.4 783.03 1292.27 818.94C1291.08 820.24 1289.88 821.53 1288.66 822.81C1229.51 885.21 1152.13 924.98 1064.19 948.76C1062.49 949.22 1060.79 949.68 1059.08 950.12C994.86 966.97 925.15 975.43 852.88 978.07C850.11 978.18 847.33 978.27 844.55 978.36C829.96 978.8 815.27 979.01 800.5 979.01C675.76 979.01 528.65 963.21 411.55 887.26C410.14 886.34 408.74 885.42 407.35 884.49C382.41 867.91 358.88 848.53 337.28 825.94C335.67 824.25 334.07 822.55 332.48 820.83C289.79 774.62 254.97 715.34 232.15 639.5C231.63 637.78 231.12 636.04 230.61 634.3C222.11 605.08 215.38 573.43 210.63 539.17C210.39 537.45 210.16 535.73 209.93 533.99C207.36 514.45 205.43 494.06 204.18 472.8C204.08 471.1 203.98 469.4 203.89 467.69C202.97 450.38 202.5 432.49 202.5 414.01C202.5 414.01 201.44 405.43 201.29 391.89C201.28 390.26 201.28 388.57 201.29 386.81C201.45 362.88 204.65 326.94 219.41 294.62C220.55 292.12 221.76 289.64 223.05 287.18C242.32 250.44 278.03 220.22 343.5 221.01C432.36 222.09 483.81 313.37 555.18 394.42C556.36 395.77 557.55 397.11 558.76 398.46C603.08 448.1 655.3 493.23 728.78 510.45C730.38 510.82 732 511.19 733.62 511.53C750.04 515.06 767.51 517.21 786.17 517.72C787.82 517.77 789.49 517.8 791.17 517.82C800.01 517.92 809.11 517.66 818.5 517.01C853.37 514.59 884.13 509.19 911.51 501.66C913.15 501.2 914.77 500.74 916.38 500.27C947.61 491.25 974.39 479.42 997.86 466.07C999.32 465.24 1000.77 464.41 1002.2 463.56C1088.78 412.78 1129.75 341.81 1186 319.15C1188.32 318.21 1190.67 317.35 1193.05 316.58C1206.89 312.13 1221.76 310.62 1238.5 313.01C1364.5 331.01 1460.5 459.01 1372.5 688.01Z" fill="#FFEAE9"/>
<path id="Shape_255_" d="M172.729 740.476L171.231 740.539L173.712 799.576L175.211 799.513L172.729 740.476Z" fill="#FF5876"/>
<path id="Shape_254_" d="M183.632 751.928L182.643 751.969L184.279 790.894L185.269 790.852L183.632 751.928Z" fill="#00CCBD"/>
<path id="Shape_253_" d="M354.953 141.008L296.832 151.68L297.103 153.155L355.224 142.484L354.953 141.008Z" fill="#FF5876"/>
<path id="Shape_252_" d="M345.234 153.891L306.913 160.927L307.092 161.901L345.413 154.865L345.234 153.891Z" fill="#00CCBD"/>
<path id="Shape_251_" d="M811.379 143.566L811.206 145.056L869.9 151.904L870.074 150.414L811.379 143.566Z" fill="#FF5876"/>
<path id="Shape_250_" d="M818.305 155.358L818.19 156.341L856.889 160.857L857.004 159.873L818.305 155.358Z" fill="#00CCBD"/>
<path id="Shape_249_" d="M1256.43 1046.19L1207.33 1079.07L1208.17 1080.31L1257.26 1047.43L1256.43 1046.19Z" fill="#FF5876"/>
<path id="Shape_248_" d="M1243.8 1042.12L1211.43 1063.8L1211.98 1064.62L1244.35 1042.94L1243.8 1042.12Z" fill="#00CCBD"/>
<path id="Shape_247_" d="M1415.84 261.473L1414.36 261.738L1424.8 319.9L1426.28 319.635L1415.84 261.473Z" fill="#FF5876"/>
<path id="Shape_246_" d="M1406.55 271.51L1405.58 271.685L1412.46 310.033L1413.43 309.858L1406.55 271.51Z" fill="#00CCBD"/>
<path id="Shape_245_" d="M1052.98 172.006L1040.98 184.006L1052.98 196.005L1064.98 184.006L1052.98 172.006Z" fill="#FEB149"/>
<path id="Shape_244_" d="M1428.98 852.004L1416.98 864.004L1428.98 876.003L1440.98 864.004L1428.98 852.004Z" fill="#FEB149"/>
<path id="Shape_243_" d="M257.985 966.996L245.985 978.995L257.985 990.995L269.984 978.995L257.985 966.996Z" fill="#FEB149"/>
<path id="Shape_242_" d="M141.99 285L129.99 296.999L141.99 308.999L153.989 296.999L141.99 285Z" fill="#FEB149"/>
<path id="Shape_241_" d="M318.3 273.3C351.43 279.18 378.17 301.67 397.77 340.13C422.05 387.78 454.65 410.95 497.43 410.94H498.26C518.31 410.8 538.79 405.63 558.76 398.46C557.55 397.11 556.36 395.77 555.18 394.42C500.24 413.71 442.37 416.64 402.23 337.87C381.87 297.92 353.92 274.54 319.16 268.38C285.74 262.45 250.83 273.58 223.05 287.18C221.76 289.64 220.55 292.12 219.41 294.62C247.29 280.12 283.78 267.18 318.3 273.3Z" fill="white"/>
<path id="Shape_240_" d="M275.46 536.76C308.93 544.9 345.94 563.79 385.13 583.79C422.86 603.04 461.87 622.95 501.51 635.28C546.73 649.35 585.73 651.02 620.73 640.39C660.32 628.36 690.7 605.25 711.01 571.68C723.16 551.6 729.96 530.63 733.62 511.53C732 511.19 730.38 510.82 728.78 510.45C717.01 572.23 677.83 617.82 619.27 635.61C543.05 658.76 460.36 616.57 387.4 579.33C347.95 559.2 310.68 540.18 276.64 531.9C250.38 525.52 228.59 526.12 209.93 533.99C210.16 535.73 210.39 537.45 210.63 539.17C228.61 531.22 249.76 530.51 275.46 536.76Z" fill="white"/>
<path id="Shape_239_" d="M775.46 866.68C755.36 815.56 736.37 767.29 665.41 755.53C591.16 743.24 536.55 741.04 493.79 768.01C463.08 787.39 437.22 821.64 407.35 884.49C408.74 885.42 410.14 886.34 411.55 887.26C441.09 824.97 466.47 791.16 496.46 772.24C537.88 746.11 591.5 748.36 664.59 760.47C732.75 771.75 751.24 818.75 770.8 868.51C783.49 900.75 796.6 934.1 823.54 960.97C829.94 967.35 836.94 973.15 844.55 978.36C847.33 978.27 850.11 978.18 852.88 978.07C808.39 950.41 791.75 908.09 775.46 866.68Z" fill="white"/>
<path id="Shape_238_" d="M1035.2 629.33C1058.62 607.55 1066.48 583.94 1059.23 557.17C1052.84 533.59 1036.14 510.64 1018.45 486.36C1012.95 478.81 1007.42 471.21 1002.2 463.56C1000.77 464.41 999.32 465.24 997.86 466.07C1003.2 473.9 1008.84 481.64 1014.41 489.3C1048.47 536.07 1080.64 580.25 1031.8 625.67C988.17 666.24 1011.61 745.28 1034.28 821.72C1048.5 869.67 1062.16 915.72 1059.08 950.12C1060.79 949.68 1062.49 949.22 1064.19 948.76C1066.73 913.55 1053.17 867.84 1039.07 820.3C1016.84 745.32 993.84 667.79 1035.2 629.33Z" fill="white"/>
<path id="Shape_237_" d="M1335.99 473.25C1332.42 437.27 1311.56 401.2 1275.66 368.94C1252.01 347.69 1223.52 329.71 1193.05 316.58C1190.67 317.35 1188.32 318.21 1186 319.15C1256.19 348.25 1324.37 406.75 1331.01 473.75C1335.29 516.8 1320.17 562.35 1304.18 610.56C1288.18 658.78 1271.64 708.64 1274.03 759.04C1275.09 781.42 1279.94 802.62 1288.66 822.81C1289.88 821.53 1291.08 820.24 1292.27 818.94C1263.28 749.69 1286.38 680.1 1308.92 612.13C1325.09 563.4 1340.37 517.37 1335.99 473.25Z" fill="white"/>
<path id="Shape_236_" d="M916.38 500.27C914.77 500.74 913.15 501.2 911.51 501.66C916.63 550.43 922.7 601.42 929.03 640.9C947.63 756.86 949.58 837.85 898.65 856.15C882.7 861.88 868.88 860.21 856.4 851.03C824.77 827.79 803.58 755.3 795.14 641.4C791.66 594.54 791.02 549.44 791.17 517.82C789.49 517.8 787.82 517.77 786.17 517.72C786.02 549.44 786.66 594.7 790.15 641.73C798.83 758.8 820.12 830.58 853.43 855.06C861.93 861.3 871.2 864.43 881.16 864.43C887.3 864.43 893.71 863.24 900.35 860.85C926.97 851.28 941.65 825.48 945.21 781.96C948.64 740.13 941.45 686.78 933.97 640.1C927.61 600.44 921.51 549.19 916.38 500.27Z" fill="white"/>
<path id="Shape_235_" d="M441.33 559.71C479.55 580.01 508.76 586.8 530.74 586.8C547.23 586.79 559.66 582.97 568.75 578.17C589.35 567.29 601.88 546.75 604.98 518.78C609.06 482.11 548.05 472.14 483.46 461.6C429.73 452.82 374.18 443.75 349.24 419.7C325.52 396.84 284.91 385.44 228.49 385.75C218.98 385.81 209.8 386.21 201.29 386.81C201.28 388.57 201.28 390.26 201.29 391.89C246.77 388.74 312.17 390.91 345.76 423.3C371.83 448.43 428.17 457.63 482.65 466.53C544.83 476.68 603.56 486.28 600.02 518.22C597.1 544.48 585.48 563.68 566.41 573.75C537.96 588.78 494.37 582.22 443.67 555.29C392.99 528.37 333.03 502.65 283.27 486.5C258.6 478.49 229.19 470.44 203.89 467.69C203.98 469.4 204.08 471.1 204.18 472.8C224.96 475.14 251.2 481.34 281.73 491.25C331.23 507.32 390.89 532.91 441.33 559.71Z" fill="white"/>
<path id="Shape_234_" d="M1187.02 433.51C1160.72 409.1 1134.04 396.49 1115.66 399.78C1103.73 401.92 1089.5 411.5 1089.5 444.99V445.36L1089.61 445.71C1089.95 446.83 1123.3 558.32 1110.53 653.65C1103.32 707.43 1102.21 745.92 1107.04 774.77C1112.65 808.3 1126.66 830.36 1149.87 842.21C1159.81 847.29 1167.91 849.79 1174.63 849.79C1178.13 849.79 1181.25 849.11 1184.06 847.77C1198.85 840.69 1203.94 816.34 1212.36 776C1214.15 767.44 1216.17 757.74 1218.44 747.53C1223.89 723.02 1232.25 702.47 1240.35 682.6C1259.16 636.41 1275.4 596.53 1249.35 526.12C1236.89 492.47 1214.17 458.71 1187.02 433.51ZM1235.72 680.72C1227.55 700.79 1219.1 721.54 1213.56 746.46C1211.28 756.7 1209.25 766.42 1207.46 774.99C1199.63 812.49 1194.46 837.26 1181.9 843.27C1175.21 846.47 1165.75 844.73 1152.14 837.77C1111.43 816.98 1100.81 763.83 1115.48 654.33C1128.03 560.66 1096.62 451.8 1094.5 444.64C1094.56 428.12 1098.46 407.95 1116.54 404.71C1150.69 398.6 1217.83 455.36 1244.66 527.87C1270.03 596.45 1254.13 635.5 1235.72 680.72Z" fill="white"/>
<path id="Shape_233_" d="M387.55 670.04C356.22 645.24 281.07 637.01 230.61 634.3C231.12 636.04 231.63 637.78 232.15 639.5C282.04 642.35 354.86 650.54 384.45 673.96C403.79 689.27 392.86 706.53 371.87 735.7C355.03 759.11 335.19 786.7 332.48 820.83C334.07 822.55 335.67 824.25 337.28 825.94C338.36 790.85 358.76 762.5 375.93 738.62C395.06 712.03 411.58 689.06 387.55 670.04Z" fill="white"/>
</g>
<g id="service_pc">
<path id="Shape_286_" d="M356.18 332.65V997.31H1243.82V332.65H356.18ZM1205.94 895.11H394.06V374.82H1205.94V895.11Z" fill="white"/>
<path id="Shape_285_" d="M1244.57 998.06H355.43V331.9H1244.57V998.06ZM356.93 996.56H1243.07V333.4H356.93V996.56ZM1206.69 895.86H393.31V374.07H1206.69V895.86ZM394.81 894.36H1205.19V375.57H394.81V894.36Z" fill="#00015E"/>
<path id="Shape_284_" d="M935.07 997.31H667.78V1044.48H935.07V997.31Z" fill="#00015E"/>
<path id="Shape_283_" d="M1035.14 1044.48H567.73V1091.65H1035.14V1044.48Z" fill="white"/>
<path id="Shape_282_" d="M1035.88 1092.4H566.98V1043.73H1035.89V1092.4H1035.88ZM568.48 1090.9H1034.39V1045.23H568.48V1090.9Z" fill="#00015E"/>
<path id="Shape_281_" d="M1205.94 374.82H394.06V895.11H1205.94V374.82Z" fill="#FF5876"/>
<path id="Shape_280_" d="M1206.69 895.86H393.31V374.07H1206.69V895.86ZM394.81 894.36H1205.19V375.57H394.81V894.36Z" fill="#00015E"/>
</g>
<g id="Man_2_">
<path id="service_body" d="M1061 568.15C1061 568.15 1100 370.7 779 370.7L707.22 380.76C707.22 380.76 630.07 401.34 597 449.16C558.46 504.9 569.26 609.4 570.4 692.22C571.33 760.16 586 895.16 586 895.16H968C968 895.16 959 765.16 959 717.16C959 669.16 954 572.16 954 572.16L1061 568.15Z" fill="#00CCBD"/>
<path id="service_left_lower_hand" d="M779.3 762.15C779.3 762.15 787.84 776.23 760 772C714 765 693 771 715 778L746.5 787.5C746.5 787.5 690 774 688 785C686.7 792.16 702.42 798.58 739.46 801.54C739.46 801.54 694 796 693 803C692 810 707.89 815.17 733.7 816.83C733.7 816.83 698.5 813.5 697.5 818.5C696.5 823.5 698.82 832.37 745.66 841.43C792.5 850.5 889.79 857.36 975.64 841.43C1061.5 825.5 1066.97 739.58 1067.73 700.54C1068.49 661.5 1061.49 552.5 1061.49 552.5L949.28 562.2L955.39 719.21C955.39 719.21 972.76 768.04 894.63 769.77C816.5 771.5 806.5 770.5 799.5 757.5C792.5 744.5 770.1 735.81 779.3 762.15Z" fill="white"/>
<path id="Shape_277_" d="M862.84 851.8C811.96 851.8 768.46 846.61 745.51 842.17C718 836.84 702.45 831.02 697.98 824.36C696.31 821.87 696.49 819.74 696.76 818.36C697.28 815.77 704.22 814.99 712.14 814.96C702.65 813.07 696.18 810.41 693.58 807.21C692.48 805.86 692.04 804.41 692.25 802.9C692.74 799.46 701.44 798.57 711.31 798.7C699.15 796.31 691.39 793.17 688.48 789.39C687.38 787.96 686.97 786.44 687.25 784.87C687.46 783.73 688.14 782.77 689.29 782.02C695.45 778 715.29 780.62 729.94 783.3L714.77 778.72C708.03 776.58 705.01 774.48 705.52 772.32C706.73 767.16 730.19 766.71 760.1 771.26C773.16 773.25 777.63 771.1 779.07 768.95C780.86 766.28 778.67 762.58 778.65 762.54L778.58 762.4C774.32 750.2 776.93 746.1 779.87 744.8C785.24 742.44 795.65 748.79 800.15 757.14C806.89 769.65 815.72 770.77 894.6 769.01C922.98 768.38 941.89 761.52 950.78 748.61C960.08 735.12 954.73 719.6 954.67 719.45L954.63 719.23L948.49 561.5L1062.18 551.68L1062.23 552.45C1062.3 553.54 1069.22 661.93 1068.47 700.55C1068.03 723.18 1066.01 752.65 1054.27 779.94C1039.49 814.3 1013.07 835.24 975.76 842.16C937.54 849.27 898.39 851.8 862.84 851.8ZM712.46 816.5C704.42 816.5 698.53 817.15 698.23 818.65C698.01 819.77 697.86 821.5 699.22 823.52C703.4 829.74 719.07 835.52 745.79 840.7C790.99 849.45 889.46 856.67 975.5 840.7C1064.56 824.17 1066.38 731.11 1066.98 700.53C1067.7 663.68 1061.42 563.13 1060.79 553.32L950.05 562.89L956.13 719.08C956.62 720.56 961.32 735.99 952.02 749.48C942.84 762.8 923.53 769.89 894.64 770.52C814.92 772.29 805.97 771.1 798.83 757.86C794.73 750.24 785.13 744.13 780.47 746.18C777.14 747.65 776.97 753.21 779.97 761.84C780.32 762.45 782.5 766.51 780.32 769.78C777.88 773.44 771 774.44 759.88 772.75C724.21 767.32 707.59 770.07 706.99 772.67C706.83 773.36 708.38 775.12 715.23 777.3L746.72 786.8L746.33 788.25C745.86 788.14 699.52 777.16 690.12 783.29C689.32 783.81 688.87 784.42 688.74 785.15C688.53 786.3 688.84 787.39 689.68 788.48C691.88 791.34 699.52 796.21 725.6 799.41C731.85 799.9 737.17 800.51 739.55 800.8L739.4 802.29C734.63 801.91 730.17 801.47 726.03 800.97C710.21 799.75 694.23 799.76 693.75 803.11C693.59 804.2 693.92 805.23 694.76 806.26C698.24 810.54 709.52 813.82 726.17 815.47C729.29 815.68 731.97 815.92 733.78 816.09L733.66 817.59C731.19 817.43 728.8 817.24 726.51 817.01C721.56 816.68 716.71 816.5 712.46 816.5Z" fill="#00015E"/>
<path id="Shape_274_" d="M770 328.85V393.05C770 393.05 770.94 412.88 804 412.88C837.06 412.88 837.05 398.85 838 389.34C838.94 379.83 838 322.56 838 322.56L770 328.85Z" fill="white"/>
<path id="Shape_273_" d="M804 413.63C770.62 413.63 769.26 393.29 769.25 393.08V328.16L838.73 321.74L838.74 322.55C838.78 324.89 839.67 379.97 838.74 389.42L838.63 390.53C837.72 400.27 836.47 413.63 804 413.63ZM770.75 329.53V393.05C770.79 393.79 772.11 412.13 804 412.13C835.1 412.13 836.28 399.56 837.14 390.38L837.25 389.26C838.12 380.51 837.37 330.38 837.26 323.38L770.75 329.53Z" fill="#00015E"/>
<g id="service_head">
<path id="Shape_272_" d="M804.24 350.41C850.124 350.41 887.32 313.214 887.32 267.33C887.32 221.446 850.124 184.25 804.24 184.25C758.356 184.25 721.16 221.446 721.16 267.33C721.16 313.214 758.356 350.41 804.24 350.41Z" fill="white"/>
<path id="Shape_271_" d="M804.41 351.17C800.74 351.17 797.05 350.93 793.35 350.45C747.52 344.45 715.11 302.28 721.12 256.45C724.03 234.25 735.41 214.51 753.16 200.86C770.92 187.22 792.92 181.3 815.12 184.21C837.32 187.12 857.06 198.5 870.7 216.25C884.34 234 890.26 256.01 887.35 278.21C884.44 300.41 873.06 320.15 855.31 333.8C840.52 345.17 822.77 351.17 804.41 351.17ZM804.07 184.99C786.04 184.99 768.61 190.88 754.08 202.05C736.64 215.45 725.47 234.84 722.61 256.64C716.72 301.65 748.54 343.07 793.55 348.96C815.35 351.81 836.97 346.01 854.4 332.61C871.84 319.21 883.01 299.82 885.87 278.02C888.72 256.22 882.92 234.6 869.52 217.17C856.12 199.73 836.73 188.56 814.93 185.7C811.3 185.23 807.67 184.99 804.07 184.99Z" fill="#00015E"/>
<path id="Shape_270_" d="M798.79 281.35C797.41 281.35 796.89 281.1 796.61 280.87C796.38 280.68 796.25 280.42 796.25 280.16H797.75C797.75 279.89 797.6 279.74 797.55 279.71C797.58 279.73 798.4 280.17 802.87 279.42C803.56 279.3 804.09 278.94 804.46 278.32C806.29 275.29 804.23 267.24 803.28 264.4L804.7 263.93C804.85 264.37 808.3 274.86 805.74 279.1C805.13 280.11 804.25 280.72 803.11 280.91C801.13 281.22 799.75 281.35 798.79 281.35Z" fill="#00015E"/>
<path id="Shape_269_" d="M802.3 308.2C786.35 308.2 779.74 301 779.44 300.65L780.56 299.65C780.64 299.74 788.6 308.33 807.93 306.4C826.99 304.49 829.26 298 829.29 297.93L830.73 298.35C830.64 298.66 828.36 305.86 808.08 307.89C806.03 308.1 804.1 308.2 802.3 308.2Z" fill="#00015E"/>
<path id="Shape_268_" d="M820 209.15C820 209.15 793 232.15 764 234.15C735 236.15 736 244.15 736 257.15C736 270.15 741 305.15 728 305.15C715 305.15 715.08 244.42 715.08 244.42C715.08 244.42 717 235.15 705 218.15C693 201.15 690 186.15 705 181.15C720 176.15 722 155.15 717 143.15C712 131.15 735 101.15 758 112.15C781 123.15 784 146.15 801 133.15C818 120.15 828 94.15 858 118.15C888 142.15 853 174.15 869 178.15C885 182.15 913 197.15 900 211.15C887 225.15 874 291.51 874 291.51C874 291.51 867 294.15 866 280.15C865 266.15 864 224.15 864 212.15C864 200.15 833 195.15 820 209.15Z" fill="#00015E"/>
</g>
<path id="Shape_264_" d="M721.68 291.51C724.265 291.51 726.36 289.415 726.36 286.83C726.36 284.245 724.265 282.15 721.68 282.15C719.095 282.15 717 284.245 717 286.83C717 289.415 719.095 291.51 721.68 291.51Z" fill="#00015E"/>
<path id="Shape_261_" d="M759.24 312.47C759.24 312.47 759.11 304.05 766.13 305.22C773.15 306.39 782.51 308.73 782.51 313.41C782.51 318.09 779 323.94 771.98 321.6C764.96 319.26 758.19 316.21 759.24 312.47Z" fill="white"/>
<g id="service_headphone">
<path id="Shape_267_" d="M801 129.15C692 129.15 712 245.15 712 245.15C714 255.15 723 242.15 723 242.15C723 136.15 801 141.15 801 141.15C801 141.15 878 133.15 879 242.15C879 242.15 888 255.15 890 245.15C890 245.15 910 129.15 801 129.15Z" fill="#FF5876"/>
<path id="Shape_266_" d="M728 240.15V305.15C728 305.15 702.16 294.51 702.16 268.33C702.16 242.15 728 240.15 728 240.15Z" fill="#FEB149"/>
<path id="Shape_265_" d="M874 240.15V305.15C874 305.15 899.84 294.51 899.84 268.33C899.84 242.15 874 240.15 874 240.15Z" fill="#FEB149"/>
<g id="service_headphone_mic">
<path id="Shape_263_" d="M722.85 284.49C722.85 284.49 718.17 283.32 719.34 288C720.24 291.59 736.88 305.22 759.11 312.24C781.33 319.26 759.98 308.58 759.98 308.58C759.98 308.58 736 298.15 722.85 284.49Z" fill="white"/>
<path id="Shape_262_" d="M768.68 315.39C767.43 315.39 764.78 314.82 758.89 312.96C736.25 305.81 719.59 292.07 718.62 288.19C718.21 286.54 718.4 285.29 719.21 284.49C720.51 283.19 722.79 283.71 723.04 283.77L723.25 283.82L723.4 283.98C736.29 297.37 760.05 307.8 760.29 307.9C770.59 313.05 770.16 314.1 769.91 314.72C769.76 315.06 769.63 315.39 768.68 315.39ZM721.68 285.11C721.16 285.11 720.59 285.21 720.26 285.54C719.76 286.04 719.88 287.06 720.07 287.81C720.86 290.97 737.36 304.58 759.34 311.52C764.07 313.01 766.45 313.58 767.65 313.78C766.08 312.66 762.69 310.77 759.65 309.25C759.45 309.16 735.61 298.7 722.48 285.17C722.26 285.14 721.98 285.11 721.68 285.11Z" fill="#00015E"/>
<path id="Shape_260_" d="M775.01 322.63C774.07 322.63 773 322.47 771.81 322.07C765.65 320.02 757.6 316.78 758.73 312.41C758.73 311.81 758.84 307.93 761.24 305.87C762.51 304.78 764.18 304.39 766.2 304.73C777.34 306.59 782.99 309.51 782.99 313.41C782.99 316.57 781.53 319.66 779.28 321.28C778.34 321.97 776.93 322.63 775.01 322.63ZM764.85 305.61C763.67 305.61 762.68 305.95 761.89 306.62C759.69 308.51 759.73 312.42 759.73 312.46V312.53L759.71 312.6C758.96 315.3 763.02 318.08 772.13 321.12C774.67 321.96 776.94 321.74 778.71 320.47C780.71 319.03 782 316.26 782 313.41C782 310.12 776.48 307.46 766.04 305.72C765.63 305.65 765.23 305.61 764.85 305.61Z" fill="#606060"/>
</g>
</g>
<g id="service_right_hand">
<g id="service_right_lower_hand">
<path id="Shape_276_" d="M642 624.15C642 624.15 727.42 738.15 780.81 740.15C834.2 742.15 905.77 730.81 946.65 673.98C987.52 617.15 1024.9 567.15 1074.01 567.15C1123.12 567.15 1207.48 568.15 1207.48 548.15C1207.48 528.15 1209.62 540.15 1163.7 536.15C1117.78 532.15 1119.92 536.15 1116.72 523.15C1113.52 510.15 1099.64 472.15 1086.82 500.15C1076.72 522.23 1056.92 523.15 1031.3 526.15C1005.67 529.15 924 570.15 880.1 601.5C843.13 627.9 775.03 613.08 734.5 554.5L642 624.15Z" fill="white"/>
<path id="Shape_275_" d="M791.91 741.11C787.99 741.11 784.27 741.03 780.78 740.9C758.44 740.06 728.18 720.22 690.84 681.92C663.1 653.46 641.61 624.88 641.39 624.6L640.94 624L734.66 553.43L735.1 554.07C756.54 585.06 787.66 606.11 820.48 611.84C843.19 615.8 864.2 611.91 879.65 600.88C923.94 569.25 1006.09 528.34 1031.2 525.4C1032.73 525.22 1034.24 525.05 1035.73 524.88C1058.68 522.27 1076.8 520.21 1086.13 499.83C1089.48 492.5 1093.24 488.98 1097.34 489.37C1107.26 490.3 1115.21 513.94 1117.44 522.97L1117.67 523.92C1119.74 532.42 1119.74 532.42 1138.87 533.6C1144.87 533.97 1153.09 534.48 1163.76 535.41C1181.06 536.92 1191.55 536.14 1197.82 535.68C1202.84 535.31 1205.36 535.12 1206.81 536.47C1208.27 537.83 1208.26 540.43 1208.23 545.61C1208.23 546.39 1208.22 547.24 1208.22 548.15C1208.22 557.04 1193.36 562.74 1162.8 565.58C1137.29 567.95 1105.92 567.93 1080.72 567.9H1074C1023.86 567.9 984.91 622.05 947.24 674.42C906.52 731.05 836.48 741.11 791.91 741.11ZM643.05 624.3C649.84 633.2 730.4 737.51 780.84 739.4C823.7 741.01 902.13 734.58 946.04 673.54C983.92 620.87 1023.1 566.4 1074.01 566.4H1080.73C1105.91 566.42 1137.23 566.45 1162.68 564.09C1191.91 561.37 1206.74 556.01 1206.74 548.15C1206.74 547.23 1206.74 546.39 1206.75 545.6C1206.77 541.01 1206.79 538.48 1205.81 537.56C1204.84 536.66 1202.4 536.84 1197.95 537.16C1191.64 537.63 1181.06 538.41 1163.65 536.89C1153.01 535.96 1144.8 535.46 1138.8 535.09C1118.95 533.87 1118.57 533.84 1116.24 524.27L1116.01 523.32C1113.48 513.07 1105.57 491.64 1097.23 490.86C1093.84 490.54 1090.58 493.77 1087.52 500.46C1077.84 521.6 1059.35 523.71 1035.93 526.37C1034.44 526.54 1032.93 526.71 1031.4 526.89C1006.47 529.81 924.7 570.58 880.55 602.1C864.78 613.36 843.36 617.34 820.25 613.31C787.26 607.56 755.99 586.52 734.34 555.56L643.05 624.3Z" fill="#00015E"/>
</g>
<path id="service_right_upper_hand" d="M642.49 625.44L642.04 625.09C641.38 624.58 576.41 573.83 570.1 533.31L571.58 533.08C577.53 571.27 636.76 619 642.51 623.56L736.46 554.33C721.39 532.84 636.75 414.14 635.88 412.93L637.1 412.06C637.97 413.28 724.26 534.29 738.1 554.07L738.52 554.67L737.93 555.1L642.49 625.44Z" fill="white"/>
</g>
<path id="Shape_258_" d="M946.75 474H945.25V569H946.75V474Z" fill="white"/>
</g>
<g id="service_bulb_whole">
<path id="service_bulb_main" d="M1161.03 294.86C1161.03 294.86 1100.15 295.79 1100.15 357.6C1100.15 394.78 1121.99 404.07 1125.71 408.72C1129.43 413.37 1139.19 431.96 1138.72 449.15C1138.47 458.25 1142.96 465.56 1142.96 465.56C1142.96 465.56 1144.53 482.84 1161.26 482.84C1177.99 482.84 1179.56 465.56 1179.56 465.56C1179.56 465.56 1183.58 458.16 1183.34 449.15C1182.88 431.96 1192.63 413.37 1196.35 408.72C1200.07 404.07 1221.91 394.78 1221.91 357.6C1221.91 295.79 1161.03 294.86 1161.03 294.86Z" fill="#FEB149"/>
<g id="service_bulb_dots">
<path id="Shape_301_" d="M1160.29 274.66C1159.02 274.66 1158 275.69 1158 276.96V286.14C1158 287.41 1159.03 288.44 1160.29 288.44C1161.55 288.44 1162.59 287.41 1162.59 286.14V276.96C1162.58 275.69 1161.55 274.66 1160.29 274.66Z" fill="#00015E"/>
<path id="Shape_300_" d="M1123.04 286.08C1122.36 285.01 1120.94 284.7 1119.87 285.38C1118.8 286.06 1118.49 287.48 1119.17 288.55L1124.1 296.3C1124.78 297.37 1126.2 297.68 1127.27 297C1128.34 296.32 1128.65 294.9 1127.97 293.83L1123.04 286.08Z" fill="#00015E"/>
<path id="Shape_299_" d="M1093.68 312.19L1101.38 317.19C1102.44 317.88 1103.86 317.58 1104.55 316.52C1105.24 315.46 1104.94 314.04 1103.88 313.35L1096.18 308.35C1095.12 307.66 1093.7 307.96 1093.01 309.02C1092.31 310.08 1092.61 311.5 1093.68 312.19Z" fill="#00015E"/>
<path id="Shape_298_" d="M1091.93 345.81C1093.2 345.81 1094.23 344.78 1094.23 343.51C1094.23 342.24 1093.2 341.21 1091.93 341.21H1082.75C1081.48 341.21 1080.45 342.24 1080.45 343.51C1080.45 344.78 1081.48 345.81 1082.75 345.81H1091.93Z" fill="#00015E"/>
<path id="Shape_297_" d="M1091.36 375.84L1083.61 380.77C1082.54 381.45 1082.23 382.87 1082.91 383.94C1083.59 385.01 1085.01 385.32 1086.08 384.64L1093.83 379.71C1094.9 379.03 1095.21 377.61 1094.53 376.54C1093.85 375.47 1092.42 375.16 1091.36 375.84Z" fill="#00015E"/>
<path id="Shape_296_" d="M1107.15 399.25C1106.09 398.56 1104.67 398.86 1103.97 399.92L1098.97 407.62C1098.28 408.68 1098.58 410.1 1099.65 410.79C1100.71 411.48 1102.13 411.18 1102.82 410.12L1107.82 402.42C1108.52 401.37 1108.22 399.95 1107.15 399.25Z" fill="#00015E"/>
<path id="Shape_295_" d="M1204.59 285.38C1203.52 284.7 1202.1 285.01 1201.42 286.08L1196.49 293.83C1195.81 294.9 1196.12 296.32 1197.19 297C1198.26 297.68 1199.68 297.37 1200.36 296.3L1205.29 288.55C1205.97 287.48 1205.66 286.06 1204.59 285.38Z" fill="#00015E"/>
<path id="Shape_294_" d="M1223.08 317.19L1230.78 312.19C1231.84 311.5 1232.15 310.08 1231.46 309.02C1230.77 307.96 1229.35 307.65 1228.28 308.35L1220.58 313.35C1219.52 314.04 1219.21 315.46 1219.91 316.52C1220.61 317.58 1222.01 317.88 1223.08 317.19Z" fill="#00015E"/>
<path id="Shape_293_" d="M1241.71 341.22H1232.53C1231.26 341.22 1230.23 342.25 1230.23 343.52C1230.23 344.79 1231.26 345.82 1232.53 345.82H1241.71C1242.98 345.82 1244 344.79 1244 343.52C1244 342.25 1242.97 341.22 1241.71 341.22Z" fill="#00015E"/>
<path id="Shape_292_" d="M1240.84 380.77L1233.09 375.84C1232.02 375.16 1230.6 375.47 1229.92 376.54C1229.24 377.61 1229.55 379.03 1230.62 379.71L1238.37 384.64C1239.44 385.32 1240.86 385.01 1241.54 383.94C1242.22 382.87 1241.91 381.45 1240.84 380.77Z" fill="#00015E"/>
<path id="Shape_291_" d="M1220.47 399.93C1219.78 398.87 1218.36 398.56 1217.3 399.26C1216.24 399.95 1215.93 401.37 1216.63 402.43L1221.63 410.13C1222.32 411.19 1223.74 411.5 1224.8 410.8C1225.86 410.1 1226.17 408.69 1225.47 407.63L1220.47 399.93Z" fill="#00015E"/>
</g>
<path id="service_bulb_tick" d="M1157.53 386.7L1138.06 367.65C1137.15 366.76 1137.14 365.31 1138.02 364.4C1138.91 363.49 1140.36 363.48 1141.27 364.36L1157.15 379.89C1158.12 380.83 1159.68 380.75 1160.54 379.7L1191.72 341.32C1192.52 340.34 1193.96 340.19 1194.95 340.99C1195.93 341.79 1196.08 343.23 1195.28 344.22L1160.92 386.51C1160.07 387.56 1158.5 387.65 1157.53 386.7Z" fill="white"/>
<path id="Shape_288_" d="M1183.33 449.14C1183.33 449.28 1183.34 449.42 1183.34 449.55H1138.71C1138.71 449.41 1138.71 449.27 1138.72 449.14C1138.78 446.82 1138.66 444.48 1138.38 442.15H1183.66C1183.39 444.48 1183.27 446.82 1183.33 449.14Z" fill="#00015E"/>
<path id="Shape_287_" d="M1182.38 457.76C1181.49 461.46 1180.24 464.19 1179.76 465.16H1142.75C1142.21 464.19 1140.8 461.47 1139.81 457.76H1182.38Z" fill="#00015E"/>
</g>
<g id="service_msg_whole">
<path id="Shape_307_" d="M534.5 135.5C572.67 135.5 603.62 166.44 603.62 204.62C603.62 221.29 597.72 236.58 587.89 248.52L598.99 287L562.64 267.76C554.04 271.6 544.52 273.73 534.5 273.73C496.33 273.73 465.38 242.79 465.38 204.61C465.38 166.43 496.33 135.5 534.5 135.5Z" fill="white"/>
<path id="service_msg_circle" d="M600.2 288.49L562.62 268.59C553.74 272.5 544.28 274.48 534.51 274.48C495.99 274.48 464.64 243.14 464.64 204.61C464.64 166.08 495.98 134.74 534.51 134.74C573.04 134.74 604.38 166.08 604.38 204.61C604.38 220.64 598.82 236.27 588.73 248.68L600.2 288.49ZM562.67 266.92L597.78 285.51L587.06 248.34L587.31 248.04C597.35 235.85 602.87 220.43 602.87 204.62C602.87 166.92 572.2 136.25 534.5 136.25C496.8 136.25 466.13 166.92 466.13 204.62C466.13 242.32 496.8 272.99 534.5 272.99C544.19 272.99 553.55 271 562.34 267.08L562.67 266.92Z" fill="#00015E"/>
<path id="service_msg_dot3" d="M565.05 214.8C571.865 214.8 577.39 209.275 577.39 202.46C577.39 195.645 571.865 190.12 565.05 190.12C558.235 190.12 552.71 195.645 552.71 202.46C552.71 209.275 558.235 214.8 565.05 214.8Z" fill="#00CCBD"/>
<path id="service_msg_dot2" d="M533.88 215.1C540.695 215.1 546.22 209.575 546.22 202.76C546.22 195.945 540.695 190.42 533.88 190.42C527.065 190.42 521.54 195.945 521.54 202.76C521.54 209.575 527.065 215.1 533.88 215.1Z" fill="#00CCBD"/>
<path id="service_msg_dot1" d="M502.72 215.41C509.535 215.41 515.06 209.885 515.06 203.07C515.06 196.255 509.535 190.73 502.72 190.73C495.905 190.73 490.38 196.255 490.38 203.07C490.38 209.885 495.905 215.41 502.72 215.41Z" fill="#00CCBD"/>
</g>
<g id="service_mail_whole">
<g id="service_mail_circle">
<path id="Shape_311_" d="M211.69 645.29C256.596 645.29 293 608.886 293 563.98C293 519.074 256.596 482.67 211.69 482.67C166.784 482.67 130.38 519.074 130.38 563.98C130.38 608.886 166.784 645.29 211.69 645.29Z" fill="white"/>
<path id="Shape_310_" d="M211.69 646.04C166.44 646.04 129.63 609.23 129.63 563.98C129.63 518.73 166.44 481.92 211.69 481.92C256.94 481.92 293.75 518.73 293.75 563.98C293.75 609.23 256.94 646.04 211.69 646.04ZM211.69 483.42C167.27 483.42 131.13 519.56 131.13 563.98C131.13 608.4 167.27 644.54 211.69 644.54C256.11 644.54 292.25 608.4 292.25 563.98C292.25 519.56 256.11 483.42 211.69 483.42Z" fill="#00015E"/>
</g>
<path id="service_mail" d="M260.55 526.65H162.61V600.74H260.55V526.65Z" fill="#FF5876"/>
<path id="Shape_308_" d="M211.58 574.1L162.48 527.54L163.52 526.46L211.58 572.03L260.03 526.1L261.06 527.19L211.58 574.1Z" fill="white"/>
</g>
<g id="service_gear_whole">
<g id="service_gear_circle">
<path id="Shape_314_" d="M1388.17 777.17C1433.36 777.17 1470 740.533 1470 695.34C1470 650.147 1433.36 613.51 1388.17 613.51C1342.98 613.51 1306.34 650.147 1306.34 695.34C1306.34 740.533 1342.98 777.17 1388.17 777.17Z" fill="white"/>
<path id="Shape_313_" d="M1388.17 777.91C1342.64 777.91 1305.59 740.87 1305.59 695.33C1305.59 649.79 1342.63 612.75 1388.17 612.75C1433.71 612.75 1470.75 649.79 1470.75 695.33C1470.75 740.87 1433.71 777.91 1388.17 777.91ZM1388.17 614.26C1343.46 614.26 1307.09 650.63 1307.09 695.34C1307.09 740.05 1343.46 776.42 1388.17 776.42C1432.88 776.42 1469.25 740.05 1469.25 695.34C1469.25 650.63 1432.88 614.26 1388.17 614.26Z" fill="#00015E"/>
</g>
<path id="service_gear" d="M1430.4 695.87C1430.4 695.81 1430.4 695.75 1430.4 695.69L1439.98 692.82L1435.91 677.23L1427.21 679.83C1424.87 674.2 1421.33 669.2 1416.92 665.13L1421.46 657.86L1408.1 648.85L1403.2 656.7C1398.66 655.01 1393.76 654.08 1388.63 654.08C1388.18 654.08 1387.74 654.1 1387.3 654.11L1384.61 645.02L1369.01 649.05L1371.58 657.73C1366.59 659.97 1362.12 663.15 1358.4 667.06L1349.81 661.5L1340.58 674.71L1349.74 680.63C1347.89 685.35 1346.87 690.48 1346.87 695.85C1346.87 696.22 1346.89 696.58 1346.9 696.94L1336.89 699.76L1340.7 715.42L1350.41 712.69C1352.64 717.74 1355.83 722.26 1359.76 726.03L1354.77 733.6L1367.9 742.94L1373.32 734.72C1378.07 736.59 1383.23 737.63 1388.64 737.63C1388.96 737.63 1389.28 737.61 1389.59 737.61L1392.27 746.26L1407.82 742.05L1405.37 734.14C1410.47 731.91 1415.03 728.69 1418.82 724.72L1426.22 729.75L1435.74 716.75L1427.5 711.16C1429.37 706.42 1430.4 701.27 1430.4 695.87ZM1388.63 724.46C1372.84 724.46 1360.03 711.66 1360.03 695.86C1360.03 680.06 1372.83 667.26 1388.63 667.26C1404.43 667.26 1417.23 680.06 1417.23 695.86C1417.23 711.66 1404.42 724.46 1388.63 724.46Z" fill="#00015E"/>
</g>
</g>
</svg>
